<svg width="286" height="86" viewBox="0 0 286 86" fill="none" xmlns="http://www.w3.org/2000/svg">
<path  d="M134.168 65.8343V79H131.344V62.5694H134.016L134.168 65.8343ZM133.591 70.1621L132.285 70.1165C132.295 68.9928 132.442 67.9552 132.726 67.0035C133.009 66.0418 133.429 65.2066 133.986 64.4979C134.543 63.7893 135.236 63.2426 136.066 62.8579C136.897 62.4631 137.858 62.2657 138.952 62.2657C139.721 62.2657 140.43 62.3771 141.078 62.5998C141.726 62.8124 142.287 63.1515 142.763 63.6172C143.239 64.0829 143.609 64.6802 143.872 65.4091C144.135 66.138 144.267 67.0187 144.267 68.0513V79H141.457V68.188C141.457 67.3275 141.31 66.6391 141.017 66.1228C140.733 65.6065 140.328 65.2319 139.802 64.9991C139.276 64.7561 138.658 64.6346 137.949 64.6346C137.119 64.6346 136.426 64.7814 135.869 65.075C135.312 65.3686 134.867 65.7735 134.533 66.2898C134.199 66.8061 133.956 67.3984 133.804 68.0665C133.662 68.7245 133.591 69.4231 133.591 70.1621ZM144.236 68.6132L142.353 69.1902C142.363 68.2892 142.51 67.4237 142.794 66.5935C143.087 65.7634 143.507 65.0244 144.054 64.3765C144.611 63.7286 145.294 63.2173 146.104 62.8427C146.914 62.458 147.84 62.2657 148.883 62.2657C149.764 62.2657 150.543 62.3821 151.221 62.615C151.91 62.8478 152.487 63.2072 152.953 63.6931C153.428 64.1689 153.788 64.7814 154.031 65.5306C154.274 66.2797 154.395 67.1706 154.395 68.2032V79H151.571V68.1728C151.571 67.2516 151.424 66.5379 151.13 66.0317C150.847 65.5154 150.442 65.156 149.916 64.9535C149.399 64.7409 148.782 64.6346 148.063 64.6346C147.445 64.6346 146.899 64.7409 146.423 64.9535C145.947 65.1661 145.547 65.4597 145.223 65.8343C144.899 66.1987 144.651 66.6188 144.479 67.0947C144.317 67.5705 144.236 68.0766 144.236 68.6132ZM165.465 79.3037C164.321 79.3037 163.284 79.1114 162.352 78.7267C161.431 78.3318 160.636 77.7801 159.968 77.0715C159.31 76.3628 158.804 75.5225 158.45 74.5507C158.095 73.5788 157.918 72.5158 157.918 71.3617V70.724C157.918 69.3876 158.116 68.1981 158.51 67.1554C158.905 66.1025 159.442 65.2117 160.12 64.4828C160.798 63.7539 161.568 63.2021 162.428 62.8276C163.289 62.453 164.18 62.2657 165.101 62.2657C166.275 62.2657 167.288 62.4682 168.138 62.8731C168.999 63.2781 169.702 63.845 170.249 64.5739C170.795 65.2926 171.2 66.143 171.464 67.125C171.727 68.0969 171.858 69.1599 171.858 70.314V71.5743H159.589V69.2813H169.049V69.0688C169.009 68.3399 168.857 67.6312 168.594 66.9428C168.34 66.2544 167.936 65.6875 167.379 65.242C166.822 64.7966 166.063 64.5739 165.101 64.5739C164.463 64.5739 163.876 64.7105 163.339 64.9839C162.803 65.2471 162.342 65.6419 161.958 66.1683C161.573 66.6948 161.274 67.3376 161.062 68.0969C160.849 68.8562 160.743 69.7318 160.743 70.724V71.3617C160.743 72.1413 160.849 72.8752 161.062 73.5636C161.284 74.2419 161.603 74.8392 162.018 75.3555C162.443 75.8718 162.955 76.2768 163.552 76.5703C164.159 76.8639 164.848 77.0107 165.617 77.0107C166.609 77.0107 167.45 76.8082 168.138 76.4033C168.826 75.9984 169.429 75.4567 169.945 74.7785L171.646 76.13C171.292 76.6665 170.841 77.1778 170.294 77.6637C169.748 78.1496 169.074 78.5444 168.275 78.8481C167.485 79.1519 166.549 79.3037 165.465 79.3037ZM184.705 74.6418C184.705 74.2368 184.614 73.8623 184.432 73.5181C184.26 73.1637 183.9 72.8449 183.354 72.5614C182.817 72.2678 182.007 72.0147 180.924 71.8021C180.013 71.6098 179.188 71.382 178.449 71.1188C177.72 70.8556 177.097 70.5367 176.581 70.1621C176.075 69.7875 175.685 69.3472 175.412 68.841C175.138 68.3348 175.002 67.7426 175.002 67.0643C175.002 66.4164 175.144 65.8039 175.427 65.2268C175.721 64.6498 176.131 64.1386 176.657 63.6931C177.194 63.2477 177.836 62.8984 178.586 62.6453C179.335 62.3922 180.17 62.2657 181.091 62.2657C182.407 62.2657 183.531 62.4985 184.462 62.9642C185.394 63.4299 186.107 64.0525 186.603 64.832C187.1 65.6014 187.348 66.4569 187.348 67.3984H184.538C184.538 66.9428 184.402 66.5024 184.128 66.0772C183.865 65.6419 183.475 65.2825 182.959 64.9991C182.453 64.7156 181.83 64.5739 181.091 64.5739C180.312 64.5739 179.679 64.6954 179.193 64.9383C178.717 65.1712 178.368 65.4698 178.145 65.8343C177.933 66.1987 177.826 66.5834 177.826 66.9884C177.826 67.2921 177.877 67.5654 177.978 67.8084C178.09 68.0412 178.282 68.2589 178.555 68.4613C178.829 68.6537 179.213 68.8359 179.709 69.008C180.205 69.1801 180.838 69.3522 181.607 69.5243C182.954 69.828 184.062 70.1925 184.933 70.6177C185.804 71.0429 186.452 71.5642 186.877 72.1818C187.302 72.7993 187.515 73.5484 187.515 74.4292C187.515 75.148 187.363 75.806 187.059 76.4033C186.765 77.0006 186.335 77.5169 185.768 77.9522C185.211 78.3774 184.543 78.7115 183.764 78.9544C182.994 79.1873 182.129 79.3037 181.167 79.3037C179.719 79.3037 178.494 79.0456 177.492 78.5293C176.49 78.0129 175.731 77.3448 175.214 76.5248C174.698 75.7048 174.44 74.8392 174.44 73.9281H177.264C177.305 74.6975 177.528 75.3099 177.933 75.7655C178.338 76.2109 178.834 76.5298 179.421 76.7222C180.008 76.9044 180.59 76.9955 181.167 76.9955C181.936 76.9955 182.579 76.8943 183.096 76.6918C183.622 76.4893 184.022 76.2109 184.295 75.8566C184.569 75.5023 184.705 75.0974 184.705 74.6418ZM200.771 74.6418C200.771 74.2368 200.68 73.8623 200.498 73.5181C200.326 73.1637 199.967 72.8449 199.42 72.5614C198.883 72.2678 198.073 72.0147 196.99 71.8021C196.079 71.6098 195.254 71.382 194.515 71.1188C193.786 70.8556 193.164 70.5367 192.647 70.1621C192.141 69.7875 191.751 69.3472 191.478 68.841C191.205 68.3348 191.068 67.7426 191.068 67.0643C191.068 66.4164 191.21 65.8039 191.493 65.2268C191.787 64.6498 192.197 64.1386 192.723 63.6931C193.26 63.2477 193.903 62.8984 194.652 62.6453C195.401 62.3922 196.236 62.2657 197.157 62.2657C198.473 62.2657 199.597 62.4985 200.528 62.9642C201.46 63.4299 202.174 64.0525 202.67 64.832C203.166 65.6014 203.414 66.4569 203.414 67.3984H200.604C200.604 66.9428 200.468 66.5024 200.194 66.0772C199.931 65.6419 199.541 65.2825 199.025 64.9991C198.519 64.7156 197.896 64.5739 197.157 64.5739C196.378 64.5739 195.745 64.6954 195.259 64.9383C194.783 65.1712 194.434 65.4698 194.211 65.8343C193.999 66.1987 193.892 66.5834 193.892 66.9884C193.892 67.2921 193.943 67.5654 194.044 67.8084C194.156 68.0412 194.348 68.2589 194.621 68.4613C194.895 68.6537 195.279 68.8359 195.775 69.008C196.271 69.1801 196.904 69.3522 197.674 69.5243C199.02 69.828 200.129 70.1925 200.999 70.6177C201.87 71.0429 202.518 71.5642 202.943 72.1818C203.368 72.7993 203.581 73.5484 203.581 74.4292C203.581 75.148 203.429 75.806 203.125 76.4033C202.832 77.0006 202.401 77.5169 201.834 77.9522C201.278 78.3774 200.609 78.7115 199.83 78.9544C199.061 79.1873 198.195 79.3037 197.233 79.3037C195.786 79.3037 194.561 79.0456 193.558 78.5293C192.556 78.0129 191.797 77.3448 191.281 76.5248C190.764 75.7048 190.506 74.8392 190.506 73.9281H193.331C193.371 74.6975 193.594 75.3099 193.999 75.7655C194.404 76.2109 194.9 76.5298 195.487 76.7222C196.074 76.9044 196.656 76.9955 197.233 76.9955C198.003 76.9955 198.645 76.8943 199.162 76.6918C199.688 76.4893 200.088 76.2109 200.361 75.8566C200.635 75.5023 200.771 75.0974 200.771 74.6418ZM216.959 76.1907V67.7324C216.959 67.0845 216.827 66.5227 216.564 66.0469C216.311 65.5609 215.926 65.1864 215.41 64.9231C214.894 64.6599 214.256 64.5283 213.497 64.5283C212.788 64.5283 212.166 64.6498 211.629 64.8928C211.103 65.1357 210.687 65.4546 210.384 65.8494C210.09 66.2443 209.943 66.6695 209.943 67.125H207.134C207.134 66.5379 207.286 65.9557 207.59 65.3787C207.893 64.8017 208.329 64.2803 208.896 63.8146C209.473 63.3388 210.161 62.9642 210.961 62.6909C211.771 62.4074 212.672 62.2657 213.664 62.2657C214.858 62.2657 215.911 62.4682 216.822 62.8731C217.744 63.2781 218.462 63.8905 218.979 64.7105C219.505 65.5204 219.768 66.5379 219.768 67.7628V75.4162C219.768 75.9629 219.814 76.545 219.905 77.1626C220.006 77.7801 220.153 78.3116 220.345 78.757V79H217.415C217.273 78.676 217.162 78.2458 217.081 77.7092C217 77.1626 216.959 76.6564 216.959 76.1907ZM217.445 69.0384L217.475 71.0125H214.636C213.836 71.0125 213.122 71.0783 212.495 71.2099C211.867 71.3314 211.34 71.5187 210.915 71.7718C210.49 72.0248 210.166 72.3437 209.943 72.7284C209.721 73.103 209.609 73.5434 209.609 74.0496C209.609 74.5659 209.726 75.0366 209.959 75.4618C210.191 75.887 210.541 76.2261 211.006 76.4792C211.482 76.7222 212.064 76.8437 212.753 76.8437C213.613 76.8437 214.372 76.6614 215.031 76.297C215.689 75.9326 216.21 75.4871 216.595 74.9607C216.989 74.4343 217.202 73.923 217.232 73.427L218.432 74.7785C218.361 75.2037 218.169 75.6744 217.855 76.1907C217.541 76.707 217.121 77.2031 216.595 77.6789C216.078 78.1446 215.461 78.5343 214.742 78.8481C214.033 79.1519 213.234 79.3037 212.343 79.3037C211.229 79.3037 210.252 79.0861 209.412 78.6507C208.582 78.2154 207.934 77.6333 207.468 76.9044C207.013 76.1654 206.785 75.3403 206.785 74.4292C206.785 73.5484 206.957 72.774 207.301 72.1058C207.645 71.4275 208.141 70.8657 208.789 70.4203C209.437 69.9647 210.217 69.6205 211.128 69.3876C212.039 69.1548 213.056 69.0384 214.18 69.0384H217.445ZM234.832 62.5694H237.383V78.6507C237.383 80.0984 237.09 81.3335 236.503 82.356C235.916 83.3785 235.095 84.1529 234.043 84.6793C233 85.2159 231.795 85.4842 230.429 85.4842C229.862 85.4842 229.193 85.3931 228.424 85.2108C227.665 85.0387 226.916 84.7401 226.177 84.3149C225.448 83.8998 224.835 83.338 224.339 82.6293L225.812 80.9589C226.501 81.7891 227.219 82.3661 227.968 82.6901C228.728 83.014 229.477 83.176 230.216 83.176C231.107 83.176 231.876 83.0089 232.524 82.6749C233.172 82.3408 233.673 81.8447 234.027 81.1867C234.392 80.5388 234.574 79.739 234.574 78.7874V66.1835L234.832 62.5694ZM223.519 70.9669V70.648C223.519 69.3927 223.666 68.2538 223.96 67.2313C224.263 66.1987 224.693 65.3129 225.25 64.5739C225.817 63.8349 226.501 63.2679 227.3 62.8731C228.1 62.4682 229.001 62.2657 230.003 62.2657C231.036 62.2657 231.937 62.4479 232.706 62.8124C233.486 63.1667 234.144 63.6881 234.68 64.3765C235.227 65.0547 235.657 65.8748 235.971 66.8365C236.285 67.7982 236.503 68.8865 236.624 70.1014V71.4984C236.513 72.7031 236.295 73.7863 235.971 74.7481C235.657 75.7098 235.227 76.5298 234.68 77.2081C234.144 77.8864 233.486 78.4078 232.706 78.7722C231.927 79.1265 231.016 79.3037 229.973 79.3037C228.991 79.3037 228.1 79.0962 227.3 78.6811C226.511 78.266 225.832 77.6839 225.265 76.9348C224.699 76.1856 224.263 75.3049 223.96 74.2925C223.666 73.27 223.519 72.1615 223.519 70.9669ZM226.328 70.648V70.9669C226.328 71.7869 226.409 72.5563 226.571 73.2751C226.744 73.9939 227.002 74.6266 227.346 75.1733C227.7 75.72 228.151 76.1502 228.697 76.464C229.244 76.7677 229.897 76.9196 230.656 76.9196C231.588 76.9196 232.357 76.7222 232.964 76.3274C233.572 75.9326 234.053 75.4112 234.407 74.7633C234.772 74.1154 235.055 73.4118 235.257 72.6525V68.9928C235.146 68.436 234.974 67.8995 234.741 67.3832C234.518 66.8567 234.225 66.3911 233.86 65.9861C233.506 65.571 233.066 65.242 232.539 64.9991C232.013 64.7561 231.395 64.6346 230.687 64.6346C229.917 64.6346 229.254 64.7966 228.697 65.1205C228.151 65.4344 227.7 65.8697 227.346 66.4265C227.002 66.9732 226.744 67.611 226.571 68.3399C226.409 69.0586 226.328 69.828 226.328 70.648ZM244.703 62.5694V79H241.878V62.5694H244.703ZM241.666 58.2112C241.666 57.7556 241.802 57.3709 242.076 57.0571C242.359 56.7433 242.774 56.5864 243.321 56.5864C243.857 56.5864 244.267 56.7433 244.551 57.0571C244.845 57.3709 244.991 57.7556 244.991 58.2112C244.991 58.6465 244.845 59.0211 244.551 59.3349C244.267 59.6386 243.857 59.7905 243.321 59.7905C242.774 59.7905 242.359 59.6386 242.076 59.3349C241.802 59.0211 241.666 58.6465 241.666 58.2112ZM252.022 66.0772V79H249.213V62.5694H251.87L252.022 66.0772ZM251.354 70.1621L250.185 70.1165C250.195 68.9928 250.362 67.9552 250.686 67.0035C251.01 66.0418 251.465 65.2066 252.053 64.4979C252.64 63.7893 253.338 63.2426 254.148 62.8579C254.968 62.4631 255.874 62.2657 256.866 62.2657C257.676 62.2657 258.405 62.3771 259.053 62.5998C259.701 62.8124 260.253 63.1566 260.708 63.6324C261.174 64.1082 261.528 64.7257 261.771 65.485C262.014 66.2341 262.136 67.1503 262.136 68.2336V79H259.311V68.2032C259.311 67.3427 259.185 66.6543 258.931 66.138C258.678 65.6115 258.309 65.2319 257.823 64.9991C257.337 64.7561 256.74 64.6346 256.031 64.6346C255.333 64.6346 254.695 64.7814 254.118 65.075C253.551 65.3686 253.06 65.7735 252.645 66.2898C252.24 66.8061 251.921 67.3984 251.688 68.0665C251.465 68.7245 251.354 69.4231 251.354 70.1621ZM277.048 62.5694H279.599V78.6507C279.599 80.0984 279.305 81.3335 278.718 82.356C278.131 83.3785 277.311 84.1529 276.258 84.6793C275.215 85.2159 274.011 85.4842 272.644 85.4842C272.077 85.4842 271.409 85.3931 270.639 85.2108C269.88 85.0387 269.131 84.7401 268.392 84.3149C267.663 83.8998 267.051 83.338 266.555 82.6293L268.028 80.9589C268.716 81.7891 269.435 82.3661 270.184 82.6901C270.943 83.014 271.692 83.176 272.431 83.176C273.322 83.176 274.092 83.0089 274.739 82.6749C275.387 82.3408 275.889 81.8447 276.243 81.1867C276.607 80.5388 276.79 79.739 276.79 78.7874V66.1835L277.048 62.5694ZM265.735 70.9669V70.648C265.735 69.3927 265.881 68.2538 266.175 67.2313C266.479 66.1987 266.909 65.3129 267.466 64.5739C268.033 63.8349 268.716 63.2679 269.516 62.8731C270.315 62.4682 271.216 62.2657 272.219 62.2657C273.251 62.2657 274.152 62.4479 274.922 62.8124C275.701 63.1667 276.359 63.6881 276.896 64.3765C277.442 65.0547 277.873 65.8748 278.187 66.8365C278.5 67.7982 278.718 68.8865 278.84 70.1014V71.4984C278.728 72.7031 278.511 73.7863 278.187 74.7481C277.873 75.7098 277.442 76.5298 276.896 77.2081C276.359 77.8864 275.701 78.4078 274.922 78.7722C274.142 79.1265 273.231 79.3037 272.188 79.3037C271.206 79.3037 270.315 79.0962 269.516 78.6811C268.726 78.266 268.048 77.6839 267.481 76.9348C266.914 76.1856 266.479 75.3049 266.175 74.2925C265.881 73.27 265.735 72.1615 265.735 70.9669ZM268.544 70.648V70.9669C268.544 71.7869 268.625 72.5563 268.787 73.2751C268.959 73.9939 269.217 74.6266 269.561 75.1733C269.916 75.72 270.366 76.1502 270.913 76.464C271.459 76.7677 272.112 76.9196 272.872 76.9196C273.803 76.9196 274.572 76.7222 275.18 76.3274C275.787 75.9326 276.268 75.4112 276.622 74.7633C276.987 74.1154 277.27 73.4118 277.473 72.6525V68.9928C277.362 68.436 277.189 67.8995 276.957 67.3832C276.734 66.8567 276.44 66.3911 276.076 65.9861C275.721 65.571 275.281 65.242 274.755 64.9991C274.228 64.7561 273.611 64.6346 272.902 64.6346C272.133 64.6346 271.47 64.7966 270.913 65.1205C270.366 65.4344 269.916 65.8697 269.561 66.4265C269.217 66.9732 268.959 67.611 268.787 68.3399C268.625 69.0586 268.544 69.828 268.544 70.648Z" fill="#738C93"/>
<path d="M120.143 39.6584C122.939 39.6584 125.192 41.9519 125.142 44.7479L124.754 66.4269C124.74 67.1944 124.558 67.9541 124.181 68.6227C123.063 70.6047 122.415 71.0309 120.562 72.5575C118.425 74.2825 115.474 75.7963 111.708 77.0989C107.978 78.3663 103.161 79 97.2589 79C92.4426 79 88.0066 78.1903 83.9508 76.5709C79.9312 74.9162 76.4367 72.5223 73.4672 69.389C70.534 66.2206 68.2526 62.3832 66.6231 57.877C65.0297 53.3356 64.233 48.1956 64.233 42.4572V36.49C64.233 30.7516 64.9211 25.6292 66.2971 21.123C67.7094 16.6168 69.7735 12.797 72.4895 9.66377C75.2054 6.49532 78.537 4.10138 82.4841 2.48195C86.4313 0.827317 90.9579 0 96.0638 0C102.111 0 109.163 1.02094 113.219 3.06283C117.311 5.06952 119.452 6.90018 121.733 10.4559C123.62 13.3502 124.754 24.4823 124.302 30.9504C124.151 33.0974 122.281 34.5 120.129 34.5H119.029C116.589 34.5 114.653 32.7229 114.669 30.2836C114.701 25.2001 114.952 17.6124 113.925 15.9479C112.549 13.6595 111.575 11.8289 109.004 10.4559C106.433 9.04768 100.12 8.34358 96.0638 8.34358C92.4064 8.34358 89.2378 8.99487 86.5581 10.2975C83.8783 11.6 81.6694 13.4659 79.9312 15.8951C78.193 18.3242 76.8893 21.2638 76.0202 24.7139C75.1873 28.164 74.7709 32.0541 74.7709 36.3844V42.4572C74.7709 46.893 75.296 50.8536 76.3461 54.3389C77.4325 57.8242 78.9715 60.799 80.9632 63.2634C82.9549 65.6925 85.3268 67.5408 88.079 68.8082C90.8673 70.0755 93.9454 70.7092 97.3132 70.7092C101.043 70.7092 104.067 70.41 106.384 69.8115C108.702 69.1778 110.513 68.4385 111.816 67.5936C113.12 66.7135 114.116 65.8861 114.804 65.1116V47.8964H88.0697C85.7949 47.8964 83.9508 46.0523 83.9508 43.7774C83.9508 41.5026 85.7949 39.6584 88.0697 39.6584H120.143Z" fill="#738C93"/>
<path d="M32.3481 46.4583C30.706 46.4443 29.1723 47.2595 28.2547 48.6213L10.1538 75.4853C7.73824 79.0703 2.18304 77.8617 1.47516 73.5972L19.2476 41.1111C20.1137 39.5281 21.7693 38.547 23.5738 38.5431C29.5547 38.53 40.5309 38.4003 42.6127 37.3254C45.1196 36.0309 46.9461 34.2329 48.0922 31.9315C49.274 29.6302 49.8649 27.0052 49.8649 24.0565C49.8649 21.3596 49.274 18.8245 48.0922 16.4512C46.9461 14.0779 45.1196 12.1721 42.6127 10.7337C40.1057 9.25943 32.895 8.52227 28.848 8.52227H15.3052C12.5785 8.52227 10.3681 10.7327 10.3681 13.4594V73.5972C10.3681 76.3239 8.15766 78.5343 5.43096 78.5343H4.93713C2.21043 78.5343 0 76.3239 0 73.5972V4.93713C0 2.21043 2.21043 0 4.93713 0H28.848C34.7573 0 43.6871 1.02483 47.7698 3.07449C51.8526 5.12415 54.9505 7.96491 57.0635 11.5968C59.1765 15.1927 60.233 19.31 60.233 23.9487C60.233 28.9829 59.1765 33.28 57.0635 36.8399C54.9505 40.3999 51.8526 43.1148 47.7698 44.9846C44.266 46.5585 37.8362 46.5051 32.3481 46.4583Z" fill="#738C93"/>

</svg>
