<svg aria-hidden="true" style="position: absolute; width: 0; height: 0; overflow: hidden;" version="1.1" xmlns="http://www.w3.org/2000/svg" xmlns:xlink="http://www.w3.org/1999/xlink">
<defs>
<symbol id="icon-menu-btn" viewBox="0 0 32 32">
<path  d="M1.92 15.36h28.16c0.353 0 0.64 0.287 0.64 0.64s-0.287 0.64-0.64 0.64h-28.16c-0.353 0-0.64-0.287-0.64-0.64s0.287-0.64 0.64-0.64z"></path>
<path  d="M1.92 23.68h28.16c0.353 0 0.64 0.287 0.64 0.64s-0.287 0.64-0.64 0.64h-28.16c-0.353 0-0.64-0.287-0.64-0.64s0.287-0.64 0.64-0.64z"></path>
<path  d="M1.92 7.040h28.16c0.353 0 0.64 0.287 0.64 0.64s-0.287 0.64-0.64 0.64h-28.16c-0.353 0-0.64-0.287-0.64-0.64s0.287-0.64 0.64-0.64z"></path>
</symbol>
<symbol id="icon-rectangle-keys" viewBox="0 0 32 32">
<path d="M0 0h32v32h-32v-32z"></path>
</symbol>
<symbol id="icon-lock" viewBox="0 0 32 32">
<path d="M16 17.778c-1.659 0-2.963 1.304-2.963 2.963 0 0.948 0.474 1.778 1.185 2.37v2.37c0 0.948 0.83 1.778 1.778 1.778s1.778-0.83 1.778-1.778v-2.37c0.711-0.593 1.185-1.422 1.185-2.37-0-1.659-1.304-2.963-2.963-2.963zM16.593 22.4v3.081c0 0.356-0.237 0.593-0.593 0.593s-0.593-0.237-0.593-0.593v-3.081c-0.711-0.237-1.185-0.948-1.185-1.659 0-0.948 0.83-1.778 1.778-1.778s1.778 0.83 1.778 1.778c-0 0.83-0.474 1.422-1.185 1.659z"></path>
<path d="M24.889 13.037v-4.148c0-4.859-4.030-8.889-8.889-8.889s-8.889 4.030-8.889 8.889v4.148c-2.015 0-3.556 1.541-3.556 3.556v11.852c0 2.015 1.541 3.556 3.556 3.556h17.778c2.015 0 3.556-1.541 3.556-3.556v-11.852c0-1.896-1.541-3.556-3.556-3.556zM8.296 8.889c0-4.267 3.437-7.704 7.704-7.704s7.704 3.437 7.704 7.704v4.148h-1.185v-4.148c0-3.556-2.963-6.519-6.519-6.519s-6.518 2.963-6.518 6.519v4.148h-1.185v-4.148zM21.333 8.889v4.148h-10.667v-4.148c0-2.963 2.37-5.333 5.333-5.333s5.333 2.37 5.333 5.333zM27.259 28.444c0 1.304-1.067 2.37-2.37 2.37h-17.778c-1.304 0-2.37-1.067-2.37-2.37v-11.852c0-1.304 1.067-2.37 2.37-2.37h17.778c1.304 0 2.37 1.067 2.37 2.37v11.852z"></path>
</symbol>
<symbol id="icon-shield" viewBox="0 0 32 32">
<path d="M15.968 30.080l-0.256-0.096c-6.72-2.176-11.2-8.384-11.2-15.456v-9.344l11.424-3.296 11.456 3.296v9.344c0 7.072-4.48 13.28-11.168 15.456l-0.256 0.096zM6.112 6.432v8.128c0 6.272 3.936 11.808 9.856 13.856 5.888-2.048 9.824-7.584 9.824-13.856v-8.128l-9.856-2.848-9.824 2.848z"></path>
</symbol>
<symbol id="icon-arrow" viewBox="0 0 32 32">
<path d="M31.975 28.896c-0.613-1.886-1.556-3.679-2.358-5.471-0.094-0.236-0.472-0.236-0.613-0.094-0.802 0.849-1.698 1.698-2.217 2.735h-0.047c-5.754 0.424-11.319-4.48-15.28-8.064-4.575-4.103-8.725-9.102-10.375-15.091-0.094-0.755-0.189-1.556-0.189-2.358 0-0.377-0.519-0.377-0.566 0 0 0.141 0 0.283 0 0.424-0.189 0-0.33 0.141-0.33 0.377 0.047 0.519 0.189 1.038 0.283 1.556 0.377 12.781 13.111 25.090 25.561 25.891-0.424 0.755-0.802 1.556-1.273 2.311-0.236 0.33 0.141 0.66 0.472 0.613 2.358-0.33 4.48-1.462 6.65-2.311 0.189-0.047 0.377-0.236 0.283-0.519zM25.655 30.783c0.283-0.613 0.472-1.226 0.802-1.839 0.094-0.236-0.047-0.424-0.189-0.472 0-0.141-0.094-0.236-0.236-0.283-11.271-1.886-20.421-9.574-23.816-19.996 2.217 4.103 5.612 7.687 8.961 10.705 2.452 2.217 5.046 4.197 7.876 5.848 2.217 1.273 4.999 2.452 7.546 1.651v0c-0.141 0.377 0.424 0.566 0.613 0.283 0.613-0.802 1.226-1.556 1.886-2.264 0.66 1.462 1.368 2.924 1.886 4.433-1.745 0.66-3.49 1.509-5.329 1.934z"></path>
</symbol>
<symbol id="icon-check-btn" viewBox="0 0 32 32">
<path d="M1.767 20.339c0.081-0.027 0.169 0.017 0.196 0.096 0.089 0.263 0.223 0.526 0.372 0.796 0.043 0.078 0.088 0.158 0.133 0.238 0.108 0.19 0.217 0.384 0.311 0.574 0.038 0.076 0.006 0.167-0.071 0.204s-0.169 0.006-0.207-0.070c-0.091-0.183-0.194-0.365-0.299-0.552-0.046-0.082-0.093-0.164-0.139-0.248-0.151-0.273-0.296-0.556-0.394-0.845-0.027-0.080 0.017-0.166 0.098-0.193z"></path>
<path d="M16.006 0.305c1.281 0 2.464 0.138 3.732 0.285 0.085 0.010 0.17 0.020 0.256 0.030 0.021 0.002 0.041 0.005 0.062 0.007 0.974 0.113 1.915 0.222 2.575 0.813 0.282 0.253 0.66 0.403 1.024 0.53 0.076 0.026 0.151 0.052 0.225 0.077 0.292 0.098 0.565 0.191 0.797 0.318 0.178 0.097 0.33 0.197 0.485 0.3 0.012 0.008 0.025 0.016 0.037 0.025 0.142 0.095 0.289 0.192 0.456 0.288 0.213 0.122 0.373 0.334 0.55 0.574 0.006 0.008 0.012 0.017 0.018 0.025 0.163 0.221 0.346 0.471 0.596 0.612 0.030 0.017 0.090 0.066 0.173 0.149 0.079 0.079 0.17 0.177 0.257 0.28s0.171 0.208 0.237 0.301c0.069 0.096 0.111 0.167 0.126 0.205 0.106 0.271 0.333 0.562 0.574 0.82 0.243 0.261 0.513 0.501 0.718 0.67 0.229 0.188 0.407 0.561 0.553 0.995 0.071 0.213 0.133 0.432 0.188 0.639 0.012 0.046 0.025 0.092 0.037 0.137 0.041 0.154 0.080 0.3 0.117 0.423 0.068 0.224 0.204 0.379 0.318 0.503l0.017 0.018c0.112 0.122 0.19 0.207 0.226 0.314 0.027 0.081 0.033 0.166 0.040 0.279 0.007 0.106 0.015 0.235 0.062 0.366 0.063 0.175 0.167 0.306 0.257 0.419l0.012 0.015c0.088 0.11 0.162 0.201 0.212 0.316 0.049 0.112 0.060 0.228 0.073 0.369 0.002 0.020 0.004 0.040 0.006 0.061 0.016 0.16 0.041 0.35 0.168 0.521 0.283 0.384 0.376 0.963 0.389 1.596 0.007 0.312-0.006 0.629-0.021 0.932-0.002 0.046-0.005 0.093-0.007 0.138-0.012 0.25-0.024 0.488-0.024 0.696 0 0.539 0.042 1.079 0.083 1.61l0 0.005c0.041 0.531 0.082 1.052 0.082 1.565 0 0.992-0.545 2.033-1.053 2.935-0.026 0.046-0.076 0.109-0.147 0.185-0.069 0.075-0.15 0.155-0.231 0.234l-0.017 0.017c-0.074 0.072-0.147 0.144-0.205 0.206-0.031 0.034-0.061 0.067-0.085 0.099-0.021 0.028-0.049 0.068-0.062 0.113-0.114 0.392-0.324 0.811-0.599 1.115-0.42 0.464-0.996 1.25-1.255 1.829-0.087 0.194-0.246 0.374-0.43 0.581-0.010 0.011-0.020 0.022-0.030 0.033-0.188 0.212-0.397 0.453-0.506 0.74-0.036 0.094-0.109 0.179-0.204 0.29-0.010 0.012-0.021 0.025-0.032 0.038-0.099 0.115-0.223 0.267-0.249 0.456-0.038 0.282-0.074 0.476-0.148 0.649-0.072 0.17-0.183 0.328-0.386 0.528-0.079 0.078-0.151 0.152-0.221 0.223-0.353 0.361-0.616 0.629-1.123 0.768-0.665 0.182-1.336 0.326-2.013 0.469-0.043 0.009-0.086 0.018-0.129 0.027-0.633 0.134-1.272 0.269-1.908 0.434-0.316 0.082-0.659 0.102-1.015 0.101-0.174-0.001-0.349-0.007-0.526-0.012l-0.011-0c-0.179-0.006-0.359-0.012-0.536-0.012h-5.702c-0.165 0-0.361 0.017-0.562 0.034l-0.013 0.001c-0.199 0.017-0.406 0.035-0.606 0.041-0.205 0.006-0.396-0.002-0.56-0.033s-0.288-0.086-0.371-0.163c-0.221-0.206-0.479-0.371-0.722-0.526-0.055-0.035-0.11-0.070-0.163-0.105-0.294-0.192-0.556-0.386-0.744-0.655-0.569-0.816-1.094-1.084-1.802-1.446-0.153-0.078-0.315-0.161-0.488-0.255-0.506-0.274-1.032-0.619-1.297-1.080-0.231-0.402-0.597-0.71-0.944-1l-0.028-0.023c-0.345-0.287-0.671-0.559-0.894-0.9-0.081-0.124-0.172-0.226-0.258-0.316-0.030-0.032-0.059-0.061-0.086-0.089-0.054-0.055-0.103-0.105-0.15-0.159-0.132-0.152-0.224-0.311-0.224-0.573 0-0.288-0.135-0.536-0.271-0.754-0.029-0.047-0.058-0.092-0.086-0.136-0.111-0.173-0.213-0.331-0.275-0.507-0.048-0.138-0.078-0.284-0.111-0.442-0.011-0.054-0.022-0.109-0.035-0.166-0.020-0.090-0.042-0.182-0.071-0.273 0.033-0.053 0.032-0.123-0.009-0.175-0.087-0.11-0.167-0.22-0.242-0.331-0.13-0.249-0.169-0.494-0.189-0.758-0.005-0.070-0.009-0.142-0.013-0.216-0.013-0.256-0.028-0.539-0.107-0.835-0.117-0.44-0.1-0.892-0.048-1.364 0.014-0.125 0.030-0.252 0.046-0.38 0.044-0.349 0.090-0.71 0.090-1.063 0-0.593-0.122-1.156-0.243-1.703l-0.006-0.028c-0.12-0.541-0.236-1.067-0.246-1.614-0.024-1.312 0.255-2.553 0.653-3.829 0.077-0.247 0.181-0.464 0.301-0.667 0.020-0.032 0.040-0.064 0.059-0.097 0.075-0.121 0.156-0.237 0.239-0.353 0.046-0.064 0.093-0.129 0.141-0.194 0.2-0.272 0.407-0.555 0.571-0.88 0.035-0.070 0.012-0.153-0.052-0.195 0.022-0.053 0.043-0.106 0.061-0.159 0.126-0.372 0.404-0.819 0.754-1.209 0.351-0.391 0.758-0.707 1.131-0.837 0.513-0.178 0.941-0.574 1.344-0.945 0.017-0.016 0.034-0.031 0.051-0.047 0.43-0.396 0.837-0.757 1.322-0.904 0.192-0.058 0.347-0.12 0.493-0.179l0.018-0.007c0.151-0.061 0.293-0.117 0.467-0.166 0.159-0.045 0.42-0.126 0.676-0.216 0.252-0.089 0.512-0.191 0.662-0.278 0.39-0.228 0.845-0.322 1.336-0.393 0.101-0.015 0.205-0.028 0.309-0.042 0.391-0.052 0.796-0.105 1.173-0.22 1.144-0.347 1.953-0.463 3.154-0.463zM1.348 19.535c-0.312-0.862-0.367-1.79-0.367-2.864 0-0.551-0.126-1.060-0.248-1.552l-0.004-0.018c-0.124-0.502-0.243-0.989-0.243-1.521 0-0.23-0.034-0.498-0.072-0.77-0.003-0.024-0.007-0.049-0.010-0.073-0.035-0.253-0.070-0.512-0.086-0.765-0.036-0.565 0.031-1.033 0.352-1.304 0.194-0.164 0.337-0.381 0.453-0.617-0.189 0.829-0.302 1.666-0.287 2.537 0.010 0.578 0.132 1.129 0.25 1.662l0.009 0.040c0.122 0.55 0.236 1.083 0.236 1.638 0 0.333-0.042 0.665-0.085 1.007-0.017 0.133-0.034 0.267-0.049 0.403-0.052 0.481-0.076 0.979 0.057 1.475 0.067 0.251 0.081 0.482 0.094 0.72zM1.834 7.931c-0.045 0.070-0.089 0.131-0.133 0.18-0.281 0.31-0.443 0.75-0.591 1.155-0.012 0.032-0.023 0.064-0.035 0.095-0.166 0.449-0.327 0.84-0.606 1.076-0.443 0.375-0.495 0.984-0.459 1.554 0.017 0.264 0.054 0.534 0.088 0.785 0.003 0.025 0.007 0.050 0.010 0.074 0.038 0.276 0.069 0.524 0.069 0.729 0 0.573 0.129 1.094 0.252 1.593l0.001 0.003c0.124 0.502 0.242 0.98 0.242 1.495 0 1.513 0.106 2.804 0.923 4.031 0.027 0.051 0.058 0.103 0.092 0.155 0.096 0.144 0.148 0.325 0.194 0.534 0.010 0.047 0.020 0.096 0.031 0.146 0.033 0.163 0.069 0.338 0.125 0.497 0.075 0.213 0.201 0.409 0.314 0.584 0.026 0.041 0.052 0.080 0.075 0.118 0.134 0.214 0.225 0.398 0.225 0.594 0 0.355 0.133 0.581 0.298 0.771 0.053 0.061 0.114 0.123 0.171 0.182 0.026 0.026 0.051 0.052 0.075 0.077 0.081 0.085 0.157 0.171 0.223 0.272 0.248 0.381 0.606 0.679 0.941 0.957 0.014 0.011 0.028 0.023 0.041 0.034 0.354 0.295 0.675 0.57 0.874 0.917 0.312 0.542 0.909 0.922 1.417 1.197 0.184 0.1 0.352 0.186 0.509 0.266 0.697 0.357 1.152 0.591 1.675 1.34 0.224 0.321 0.529 0.541 0.828 0.736 0.059 0.039 0.118 0.076 0.175 0.113 0.242 0.154 0.47 0.3 0.668 0.485 0.142 0.132 0.329 0.203 0.524 0.241s0.414 0.045 0.629 0.039c0.21-0.006 0.424-0.024 0.62-0.041l0.017-0.001c0.204-0.018 0.386-0.033 0.535-0.033h5.702c0.17 0 0.346 0.006 0.526 0.012l0.012 0c0.175 0.006 0.354 0.012 0.533 0.013 0.366 0.001 0.74-0.019 1.095-0.111 0.629-0.163 1.261-0.297 1.895-0.431 0.043-0.009 0.085-0.018 0.128-0.027 0.676-0.143 1.356-0.289 2.031-0.474 0.595-0.163 0.92-0.497 1.275-0.862 0.067-0.068 0.134-0.138 0.205-0.207 0.222-0.219 0.361-0.41 0.453-0.627 0.090-0.213 0.13-0.443 0.169-0.726 0.012-0.089 0.074-0.178 0.179-0.3 0.010-0.012 0.021-0.025 0.033-0.038 0.089-0.103 0.2-0.231 0.257-0.379 0.087-0.228 0.257-0.43 0.449-0.646 0.013-0.015 0.026-0.029 0.039-0.044 0.174-0.195 0.364-0.409 0.471-0.648 0.241-0.539 0.794-1.298 1.202-1.749 0.312-0.344 0.54-0.804 0.664-1.229 0.001-0.002 0.005-0.009 0.014-0.021 0.015-0.019 0.036-0.044 0.064-0.075 0.053-0.057 0.122-0.124 0.197-0.198l0.015-0.015c0.080-0.079 0.166-0.163 0.242-0.245 0.073-0.079 0.145-0.164 0.189-0.243 0.502-0.891 1.092-2 1.092-3.083 0-0.525-0.041-1.056-0.082-1.583l-0.001-0.011c-0.041-0.533-0.082-1.061-0.082-1.587 0-0.2 0.011-0.43 0.024-0.68 0.002-0.046 0.005-0.093 0.007-0.141 0.015-0.303 0.028-0.629 0.021-0.952-0.013-0.64-0.104-1.303-0.448-1.769-0.073-0.1-0.095-0.215-0.11-0.371-0.002-0.018-0.003-0.037-0.005-0.056-0.012-0.137-0.027-0.305-0.097-0.465-0.067-0.154-0.164-0.275-0.248-0.378-0.006-0.007-0.012-0.014-0.017-0.022-0.090-0.112-0.164-0.209-0.208-0.332-0.031-0.084-0.038-0.173-0.045-0.282l-0.001-0.015c-0.006-0.1-0.014-0.221-0.054-0.341-0.058-0.171-0.179-0.302-0.28-0.411-0.009-0.010-0.018-0.020-0.027-0.029-0.112-0.122-0.205-0.233-0.251-0.386-0.036-0.117-0.072-0.255-0.113-0.409-0.012-0.046-0.025-0.093-0.038-0.142-0.056-0.208-0.119-0.435-0.193-0.657-0.146-0.435-0.345-0.885-0.649-1.134-0.198-0.163-0.457-0.394-0.689-0.642-0.235-0.252-0.429-0.509-0.513-0.723-0.030-0.076-0.092-0.174-0.162-0.271-0.072-0.101-0.161-0.213-0.253-0.321s-0.188-0.213-0.275-0.299c-0.083-0.082-0.169-0.159-0.239-0.198-0.19-0.107-0.339-0.308-0.518-0.552l-0.001-0.001c-0.17-0.231-0.366-0.498-0.644-0.658-0.157-0.090-0.296-0.183-0.44-0.278-0.012-0.008-0.024-0.016-0.036-0.024-0.156-0.103-0.318-0.21-0.508-0.314-0.258-0.141-0.566-0.245-0.86-0.344-0.071-0.024-0.141-0.047-0.209-0.071-0.364-0.127-0.688-0.261-0.919-0.468-0.734-0.658-1.767-0.777-2.705-0.885-0.035-0.004-0.069-0.008-0.103-0.012-0.087-0.010-0.173-0.020-0.259-0.030-1.265-0.147-2.464-0.287-3.765-0.287-1.231 0-2.070 0.12-3.245 0.477-0.35 0.106-0.722 0.155-1.109 0.207-0.108 0.014-0.217 0.029-0.327 0.045-0.495 0.071-1.003 0.172-1.449 0.432-0.121 0.071-0.355 0.164-0.609 0.253-0.25 0.088-0.504 0.167-0.657 0.21-0.191 0.054-0.347 0.115-0.498 0.176l-0.015 0.006c-0.147 0.059-0.291 0.117-0.47 0.171-0.565 0.171-1.022 0.586-1.442 0.973-0.010 0.009-0.019 0.018-0.029 0.027-0.421 0.388-0.807 0.744-1.258 0.9-0.443 0.154-0.892 0.512-1.26 0.922-0.369 0.411-0.673 0.893-0.816 1.315-0.101 0.3-0.291 0.598-0.475 0.888-0.014 0.022-0.027 0.043-0.041 0.064-0.072 0.114-0.148 0.262-0.224 0.41-0.025 0.049-0.051 0.099-0.076 0.147-0.039 0.075-0.078 0.147-0.117 0.213-0.020 0.031-0.039 0.063-0.058 0.096z"></path>
<path d="M17.44 0.708c-2.214-0.468-4.593-0.272-6.847-0.070-0.431 0.039-0.838 0.215-1.266 0.4-0.017 0.007-0.034 0.015-0.051 0.022-0.436 0.189-0.9 0.383-1.391 0.383-0.17 0-0.301 0.027-0.435 0.061-0.024 0.006-0.048 0.012-0.073 0.019-0.114 0.030-0.241 0.063-0.389 0.082-0.018 0.002-0.037 0.010-0.063 0.036-0.030 0.029-0.058 0.070-0.098 0.129-0.003 0.005-0.007 0.010-0.011 0.016-0.070 0.105-0.175 0.261-0.359 0.334-0.059 0.023-0.119 0.077-0.179 0.17s-0.111 0.212-0.157 0.348c-0.044 0.129-0.082 0.266-0.118 0.398l-0.004 0.016c-0.037 0.134-0.074 0.268-0.115 0.373-0.394 1.009-0.956 1.825-1.636 2.678-0.053 0.066-0.15 0.078-0.217 0.026s-0.079-0.148-0.026-0.214c0.672-0.843 1.213-1.632 1.591-2.599 0.034-0.088 0.067-0.205 0.105-0.343 0.002-0.006 0.003-0.012 0.005-0.019 0.036-0.13 0.075-0.275 0.123-0.413 0.049-0.145 0.11-0.29 0.188-0.413s0.183-0.234 0.326-0.29c0.088-0.035 0.144-0.113 0.226-0.235l0.001-0.001c0.036-0.054 0.082-0.121 0.137-0.176 0.059-0.058 0.138-0.109 0.243-0.122 0.126-0.016 0.229-0.043 0.342-0.072 0.027-0.007 0.054-0.014 0.082-0.021 0.146-0.037 0.305-0.071 0.512-0.071 0.417 0 0.822-0.165 1.267-0.357 0.022-0.009 0.044-0.019 0.066-0.029 0.416-0.18 0.865-0.375 1.348-0.418 2.247-0.201 4.672-0.404 6.94 0.075 0.38 0.080 0.741 0.133 1.101 0.185 0.221 0.032 0.442 0.064 0.667 0.102 0.581 0.099 1.161 0.239 1.752 0.53 0.355 0.175 0.659 0.41 0.944 0.634 0.012 0.009 0.023 0.018 0.035 0.027 0.276 0.217 0.534 0.42 0.82 0.569 0.5 0.261 1.016 0.366 1.544 0.474 0.154 0.031 0.309 0.063 0.464 0.099 0.68 0.156 1.349 0.39 1.89 1.057 0.484 0.596 0.977 1.375 1.349 2.199 0.372 0.822 0.628 1.698 0.628 2.487 0 1.902 0.183 3.645 0.574 5.499 0.152 0.717 0.146 1.478 0.141 2.218-0 0.070-0.001 0.141-0.001 0.211-0.004 0.814 0.010 1.597 0.232 2.31 0.119 0.381 0.126 0.81 0.124 1.218-0 0.052-0.001 0.104-0.001 0.156-0.004 0.361-0.007 0.702 0.047 1.012 0.149 0.843 0.092 1.783-0.307 2.57-0.455 0.897-1.234 1.589-2.075 2.185-0.421 0.298-0.862 0.574-1.288 0.84-0.027 0.017-0.053 0.033-0.079 0.049-0.4 0.249-0.785 0.489-1.135 0.732-0.099 0.069-0.133 0.131-0.175 0.209-0.012 0.021-0.024 0.044-0.038 0.068-0.034 0.057-0.083 0.122-0.168 0.168-0.082 0.044-0.182 0.062-0.303 0.062-0.487 0-0.804 0.143-1.244 0.387-0.652 0.361-1.301 0.62-1.97 0.887-0.268 0.107-0.538 0.215-0.814 0.331-0.237 0.1-0.473 0.144-0.69 0.185-0.021 0.004-0.042 0.008-0.063 0.012-0.238 0.045-0.455 0.093-0.665 0.204-0.569 0.302-1.214 0.547-1.824 0.734-1.015 0.311-2.177 0.505-3.236 0.181-0.361-0.11-0.737-0.187-1.123-0.266-0.125-0.026-0.251-0.051-0.378-0.079-0.513-0.11-1.032-0.242-1.51-0.478-0.323-0.159-0.609-0.374-0.882-0.58l-0.002-0.002c-0.278-0.209-0.543-0.409-0.84-0.557-0.169-0.085-0.34-0.169-0.513-0.254-1.15-0.568-2.358-1.164-3.365-1.968-1.226-0.979-1.873-2.387-2.341-3.867-0.195-0.615-0.36-1.248-0.523-1.871-0.033-0.127-0.066-0.253-0.099-0.378-0.196-0.745-0.397-1.469-0.65-2.135-0.223-0.586-0.266-1.277-0.256-1.957 0.005-0.325 0.021-0.652 0.037-0.966l0.002-0.046c0.017-0.329 0.032-0.644 0.032-0.933 0-1.944 0.478-3.97 0.986-5.805 0.096-0.347 0.158-0.664 0.218-0.977 0.036-0.184 0.071-0.366 0.113-0.552 0.111-0.494 0.264-0.985 0.584-1.51 0.134-0.22 0.271-0.416 0.406-0.61 0.089-0.128 0.178-0.255 0.266-0.388 0.127-0.193 0.28-0.306 0.413-0.404 0.134-0.099 0.246-0.182 0.34-0.32 0.047-0.070 0.143-0.089 0.215-0.042s0.090 0.141 0.043 0.211c-0.124 0.183-0.272 0.292-0.401 0.387-0.004 0.003-0.007 0.005-0.011 0.008-0.133 0.098-0.245 0.183-0.339 0.326-0.099 0.151-0.191 0.282-0.281 0.41-0.129 0.185-0.254 0.362-0.386 0.579-0.296 0.487-0.44 0.943-0.547 1.419-0.038 0.168-0.072 0.343-0.107 0.524-0.063 0.322-0.129 0.663-0.228 1.019-0.507 1.832-0.975 3.825-0.975 5.725 0 0.299-0.016 0.62-0.033 0.949l-0.002 0.044c-0.016 0.316-0.033 0.637-0.037 0.957-0.009 0.672 0.035 1.316 0.236 1.846 0.26 0.682 0.464 1.419 0.66 2.165 0.033 0.127 0.067 0.254 0.1 0.381 0.163 0.623 0.326 1.247 0.518 1.854 0.463 1.464 1.086 2.8 2.24 3.721 0.979 0.781 2.153 1.361 3.306 1.931 0.173 0.086 0.346 0.171 0.517 0.256 0.323 0.162 0.608 0.376 0.879 0.58l0.009 0.007c0.278 0.209 0.541 0.407 0.834 0.551 0.442 0.218 0.93 0.343 1.438 0.452 0.12 0.026 0.242 0.051 0.365 0.076 0.389 0.080 0.786 0.161 1.163 0.276 0.969 0.296 2.057 0.125 3.052-0.181 0.597-0.183 1.223-0.421 1.769-0.712 0.256-0.136 0.513-0.19 0.753-0.235 0.020-0.004 0.040-0.008 0.060-0.011 0.221-0.042 0.425-0.080 0.629-0.166 0.288-0.122 0.566-0.233 0.837-0.341 0.661-0.264 1.283-0.512 1.916-0.863 0.454-0.252 0.828-0.426 1.396-0.426 0.094 0 0.136-0.014 0.155-0.025 0.016-0.009 0.029-0.021 0.050-0.056 0.007-0.012 0.015-0.026 0.023-0.042 0.044-0.082 0.114-0.214 0.278-0.329 0.357-0.248 0.748-0.492 1.146-0.74 0.027-0.017 0.054-0.034 0.081-0.051 0.427-0.266 0.86-0.538 1.273-0.83 0.827-0.585 1.557-1.243 1.979-2.073 0.362-0.713 0.42-1.583 0.279-2.382-0.060-0.339-0.056-0.712-0.052-1.069 0.001-0.051 0.001-0.102 0.001-0.153 0.003-0.412-0.007-0.796-0.11-1.127-0.238-0.763-0.25-1.591-0.246-2.401 0-0.069 0.001-0.138 0.001-0.206 0.005-0.747 0.010-1.476-0.135-2.159-0.396-1.874-0.581-3.638-0.581-5.561 0-0.729-0.239-1.562-0.601-2.363-0.361-0.799-0.84-1.556-1.308-2.132-0.477-0.588-1.064-0.8-1.719-0.951-0.14-0.032-0.285-0.062-0.432-0.092-0.534-0.109-1.107-0.225-1.65-0.509-0.312-0.163-0.591-0.382-0.861-0.594-0.014-0.011-0.028-0.022-0.042-0.033-0.287-0.225-0.568-0.441-0.89-0.6-0.553-0.272-1.099-0.405-1.666-0.502-0.208-0.035-0.422-0.067-0.641-0.098-0.369-0.054-0.752-0.109-1.139-0.191z"></path>
<path d="M12.479 0.938c0.319 0.009 0.639 0.017 0.96 0.017h4.473c0.516 0 1.14 0.015 1.748 0.083 0.61 0.069 1.192 0.191 1.632 0.399 1.184 0.56 2.124 1.335 3.022 2.173 0.259 0.242 0.516 0.491 0.775 0.741 0.631 0.61 1.272 1.231 1.985 1.793 1.463 1.153 2.637 3.128 2.637 4.968v3.822c0 0.644 0.034 1.315 0.067 1.988 0.024 0.491 0.049 0.982 0.061 1.465 0.028 1.158-0.016 2.296-0.297 3.358-0.033 0.125-0.068 0.251-0.102 0.377-0.186 0.677-0.375 1.366-0.388 2.098-0.001 0.051-0.002 0.099-0.002 0.144-0.003 0.219-0.005 0.365-0.042 0.498-0.041 0.146-0.129 0.284-0.358 0.472-0.933 0.766-1.722 1.54-2.561 2.397-0.846 0.864-1.705 1.645-2.67 2.389-1.349 1.041-2.446 1.064-4.109 1.1-0.092 0.002-0.186 0.004-0.282 0.006-0.911 0.021-1.814 0.090-2.713 0.16-0.091 0.007-0.182 0.014-0.273 0.021-0.991 0.076-1.978 0.145-2.978 0.145-0.46 0-0.857 0.046-1.303 0.129-0.2 0.037-0.453-0.014-0.74-0.098-0.070-0.020-0.142-0.043-0.216-0.066-0.212-0.066-0.432-0.134-0.624-0.162-0.533-0.078-1.116-0.275-1.706-0.503-0.227-0.088-0.457-0.181-0.685-0.274-0.355-0.144-0.703-0.285-1.026-0.4-0.19-0.067-0.337-0.181-0.488-0.32-0.038-0.035-0.077-0.073-0.118-0.112-0.114-0.11-0.24-0.231-0.382-0.333-0.147-0.106-0.308-0.155-0.438-0.193-0.025-0.007-0.049-0.015-0.071-0.022-0.144-0.046-0.259-0.097-0.358-0.225-0.126-0.162-0.254-0.312-0.378-0.457l-0.018-0.022c-0.13-0.152-0.254-0.299-0.369-0.45-0.229-0.301-0.42-0.62-0.538-1.026-0.134-0.462-0.412-0.844-0.67-1.198-0.016-0.022-0.033-0.045-0.049-0.067-0.277-0.381-0.519-0.735-0.597-1.16-0.073-0.396-0.185-0.775-0.293-1.144-0.033-0.111-0.065-0.222-0.096-0.331-0.135-0.477-0.247-0.95-0.259-1.465-0.008-0.362-0.046-0.713-0.083-1.057-0.002-0.022-0.005-0.045-0.007-0.067-0.039-0.367-0.075-0.726-0.075-1.096 0-0.668-0.050-1.353-0.1-2.035-0.025-0.344-0.050-0.687-0.069-1.027-0.056-1.023-0.055-2.033 0.166-3.013 0.101-0.45 0.193-0.891 0.284-1.327 0.226-1.082 0.445-2.133 0.785-3.206 0.152-0.478 0.384-0.94 0.638-1.397 0.061-0.11 0.124-0.22 0.187-0.331-0.017 0.063-0.032 0.117-0.047 0.162-0.027 0.080 0.018 0.166 0.099 0.192s0.169-0.018 0.195-0.098c0.030-0.091 0.062-0.215 0.097-0.35 0.007-0.029 0.015-0.058 0.023-0.087 0.045-0.171 0.096-0.359 0.157-0.539s0.132-0.347 0.213-0.477c0.083-0.133 0.166-0.211 0.245-0.242 0.33-0.13 0.584-0.287 0.823-0.458 0.098-0.070 0.194-0.142 0.291-0.215 0.021-0.016 0.041-0.031 0.062-0.047 0.119-0.089 0.241-0.18 0.376-0.272 0.563-0.384 0.951-0.872 1.32-1.337l0.006-0.007c0.375-0.471 0.731-0.917 1.239-1.258 0.114-0.076 0.231-0.16 0.353-0.246 0.202-0.143 0.415-0.294 0.642-0.435 0.361-0.223 0.719-0.393 1.040-0.423 0.649-0.061 1.31-0.043 1.977-0.025zM3.775 5.857c-0.049 0.007-0.094 0.036-0.117 0.083-0.145 0.286-0.308 0.57-0.476 0.862-0.091 0.158-0.183 0.318-0.274 0.483-0.257 0.462-0.501 0.945-0.662 1.452-0.345 1.089-0.569 2.162-0.796 3.25-0.090 0.433-0.181 0.868-0.28 1.307-0.23 1.021-0.229 2.064-0.173 3.095 0.019 0.352 0.045 0.702 0.070 1.048 0.050 0.675 0.098 1.34 0.098 1.998 0 0.388 0.038 0.762 0.077 1.128 0.002 0.021 0.005 0.043 0.007 0.064 0.037 0.346 0.073 0.685 0.081 1.035 0.012 0.554 0.133 1.056 0.27 1.54 0.033 0.116 0.067 0.231 0.1 0.344 0.108 0.365 0.213 0.724 0.283 1.103 0.092 0.501 0.377 0.906 0.65 1.283 0.014 0.019 0.027 0.038 0.041 0.056 0.265 0.364 0.514 0.706 0.632 1.115 0.131 0.453 0.345 0.805 0.588 1.125 0.121 0.159 0.25 0.312 0.379 0.464l0.017 0.020c0.124 0.146 0.249 0.292 0.371 0.448 0.156 0.2 0.342 0.276 0.509 0.329 0.031 0.010 0.061 0.019 0.089 0.028 0.128 0.039 0.231 0.070 0.332 0.143 0.123 0.089 0.225 0.188 0.334 0.292 0.044 0.042 0.089 0.086 0.137 0.13 0.161 0.149 0.345 0.296 0.595 0.384 0.319 0.113 0.654 0.249 1.001 0.39 0.229 0.093 0.463 0.188 0.702 0.28 0.594 0.229 1.204 0.437 1.773 0.521 0.166 0.024 0.35 0.082 0.553 0.145 0.078 0.024 0.16 0.050 0.244 0.074 0.285 0.083 0.604 0.158 0.886 0.106 0.432-0.081 0.809-0.124 1.245-0.124 1.013 0 2.011-0.070 3.002-0.146 0.091-0.007 0.181-0.014 0.272-0.021 0.9-0.069 1.795-0.138 2.698-0.159 0.101-0.002 0.199-0.004 0.297-0.006 1.654-0.035 2.846-0.060 4.278-1.164 0.978-0.754 1.847-1.545 2.702-2.418 0.837-0.854 1.616-1.619 2.536-2.374 0.259-0.213 0.395-0.401 0.458-0.625 0.049-0.175 0.052-0.369 0.054-0.588 0-0.042 0.001-0.086 0.002-0.13 0.013-0.691 0.19-1.339 0.376-2.016 0.035-0.128 0.071-0.258 0.105-0.388 0.292-1.103 0.335-2.274 0.307-3.442-0.012-0.502-0.037-0.998-0.062-1.489-0.033-0.662-0.066-1.315-0.066-1.957v-3.822c0-1.953-1.235-4.009-2.753-5.206-0.7-0.552-1.324-1.155-1.95-1.761-0.261-0.253-0.523-0.506-0.791-0.756-0.906-0.846-1.873-1.646-3.101-2.227-0.486-0.23-1.108-0.356-1.731-0.427-0.625-0.071-1.262-0.085-1.783-0.085h-4.473c-0.303 0-0.613-0.008-0.927-0.017-0.677-0.018-1.371-0.036-2.039 0.026-0.397 0.037-0.806 0.24-1.175 0.468-0.233 0.144-0.465 0.309-0.674 0.457-0.119 0.085-0.231 0.164-0.331 0.23-0.552 0.369-0.934 0.85-1.304 1.315l-0.006 0.007c-0.374 0.471-0.737 0.925-1.259 1.281-0.141 0.096-0.268 0.19-0.387 0.28-0.021 0.016-0.043 0.032-0.063 0.048-0.097 0.073-0.189 0.143-0.283 0.21-0.227 0.162-0.458 0.304-0.757 0.422-0.17 0.067-0.297 0.21-0.394 0.366-0.022 0.036-0.044 0.074-0.064 0.113z"></path>
<path d="M24.424 8.579c0.093 0.050 0.127 0.165 0.076 0.257-0.252 0.453-0.608 0.835-0.957 1.196-0.036 0.037-0.071 0.073-0.106 0.109-0.317 0.326-0.622 0.64-0.865 0.995-0.858 1.255-2.187 2.709-3.414 3.632-0.207 0.155-0.402 0.398-0.605 0.672-0.038 0.051-0.075 0.102-0.114 0.155-0.162 0.222-0.331 0.452-0.504 0.635-0.856 0.9-1.556 1.974-2.121 3.085-0.064 0.126-0.127 0.228-0.191 0.305-0.063 0.076-0.138 0.142-0.231 0.173-0.104 0.035-0.203 0.018-0.286-0.031-0.075-0.043-0.131-0.109-0.175-0.171-0.086-0.124-0.162-0.297-0.231-0.459-0.010-0.023-0.019-0.046-0.029-0.069-0.062-0.147-0.122-0.29-0.189-0.416-0.056-0.105-0.183-0.261-0.344-0.436 0.001 0.005 0.003 0.010 0.004 0.015 0.004 0.016 0.011 0.050 0.001 0.091-0.011 0.049-0.042 0.093-0.090 0.121-0.041 0.024-0.079 0.027-0.098 0.027-0.021 0-0.037-0.003-0.046-0.005-0.029-0.007-0.053-0.019-0.059-0.023l-0.001-0c-0.020-0.011-0.043-0.025-0.064-0.040-0.046-0.031-0.11-0.076-0.184-0.13-0.15-0.109-0.351-0.261-0.554-0.416-0.404-0.307-0.827-0.636-0.872-0.674s-0.179-0.139-0.365-0.28c-0.022-0.017-0.045-0.034-0.069-0.052-0.218-0.164-0.485-0.368-0.74-0.568-0.126-0.099-0.25-0.198-0.363-0.293-0.042 0.018-0.086 0.037-0.133 0.057-0.365 0.154-0.707 0.425-0.903 0.58-0.018 0.015-0.036 0.028-0.051 0.040-0.022 0.017-0.044 0.034-0.062 0.047l-0 0c-0.013 0.009-0.041 0.030-0.072 0.043-0.009 0.004-0.027 0.010-0.050 0.014-0.020 0.003-0.069 0.007-0.122-0.021-0.063-0.033-0.091-0.090-0.099-0.135-0.007-0.038-0.001-0.068 0.002-0.081 0.007-0.027 0.018-0.049 0.023-0.058 0.006-0.012 0.014-0.024 0.020-0.034 0.045-0.070 0.158-0.217 0.345-0.462 0.015-0.020 0.030-0.040 0.046-0.061 0.049-0.064 0.098-0.123 0.146-0.178-0.011-0.003-0.023-0.007-0.035-0.013-0.021-0.010-0.057-0.030-0.084-0.071-0.073-0.108-0.008-0.207 0.010-0.231 0.022-0.029 0.049-0.048 0.062-0.057 0.031-0.021 0.070-0.041 0.107-0.058 0.078-0.037 0.188-0.081 0.312-0.13 0.017-0.007 0.035-0.014 0.053-0.021 0.017-0.013 0.035-0.022 0.052-0.029 0.125-0.049 0.241-0.092 0.351-0.126 0.135-0.052 0.273-0.106 0.406-0.161 0.144-0.059 0.278-0.117 0.388-0.17 0.114-0.055 0.191-0.1 0.231-0.132 0.051-0.040 0.125-0.080 0.217-0.070s0.153 0.063 0.189 0.105c0.065 0.078 0.104 0.192 0.131 0.279 0.014 0.045 0.027 0.092 0.040 0.138l0.003 0.010c0.014 0.050 0.028 0.097 0.042 0.142 0.030 0.095 0.057 0.155 0.079 0.185 0.077 0.103 0.157 0.206 0.237 0.309 0.256 0.329 0.518 0.666 0.723 1.054 0.038 0.072 0.081 0.144 0.128 0.215 0.071 0.079 0.145 0.157 0.226 0.233 0.020 0.019 0.042 0.040 0.065 0.062 0.153 0.145 0.373 0.353 0.581 0.567 0.234 0.239 0.475 0.507 0.58 0.704 0.075 0.142 0.143 0.303 0.204 0.448 0.010 0.023 0.019 0.045 0.028 0.066 0.072 0.17 0.133 0.305 0.193 0.39 0.016 0.022 0.028 0.037 0.038 0.046 0.010-0.008 0.024-0.021 0.041-0.043 0.039-0.048 0.088-0.123 0.145-0.235 0.577-1.134 1.296-2.241 2.184-3.175 0.155-0.163 0.305-0.368 0.466-0.588 0.040-0.055 0.081-0.11 0.122-0.166 0.202-0.272 0.426-0.557 0.682-0.75 1.188-0.894 2.49-2.316 3.328-3.543 0.262-0.384 0.591-0.722 0.905-1.044 0.036-0.037 0.072-0.074 0.107-0.11 0.35-0.362 0.673-0.712 0.898-1.116 0.051-0.092 0.168-0.125 0.261-0.075zM11.814 15.182c-0.008-0.027-0.015-0.053-0.023-0.079l-0.003-0.009c-0.013-0.047-0.025-0.090-0.038-0.13-0-0.001-0.001-0.003-0.001-0.004-0.031 0.021-0.080 0.052-0.139 0.089 0.068 0.038 0.136 0.082 0.204 0.133zM11.025 15.81c0.069 0.056 0.142 0.114 0.216 0.172 0.251 0.198 0.516 0.399 0.734 0.563 0.025 0.019 0.050 0.038 0.074 0.056 0.179 0.135 0.322 0.243 0.376 0.289l0 0 0 0 0.002 0.001 0.006 0.005 0.019 0.015c0.016 0.012 0.036 0.029 0.062 0.049 0.051 0.040 0.119 0.093 0.199 0.155 0.16 0.124 0.365 0.282 0.568 0.436 0.053 0.040 0.106 0.080 0.157 0.12-0.013-0.018-0.025-0.037-0.038-0.056-0.038-0.054-0.077-0.11-0.118-0.166-0.073-0.102-0.148-0.207-0.219-0.314-0.156-0.176-0.293-0.354-0.425-0.528l-0.005-0.007c-0.202-0.265-0.396-0.517-0.643-0.756-0.353-0.341-0.553-0.494-0.756-0.542-0.013-0.003-0.026-0.006-0.040-0.008-0.018 0.010-0.036 0.021-0.053 0.031 0.019 0.002 0.044 0.006 0.071 0.019 0.025 0.012 0.064 0.036 0.090 0.082 0.028 0.050 0.028 0.1 0.019 0.138-0.014 0.058-0.051 0.094-0.060 0.103l-0.001 0c-0.015 0.015-0.031 0.026-0.044 0.035-0.038 0.027-0.101 0.062-0.192 0.106z"></path>
<path d="M23.685 9.281c0.030 0.1-0.029 0.205-0.13 0.235-0.21 0.061-0.43 0.234-0.655 0.507-0.222 0.27-0.433 0.616-0.631 0.987s-0.377 0.759-0.541 1.112l-0.003 0.007c-0.161 0.347-0.309 0.666-0.439 0.888-0.826 1.414-1.742 2.873-2.831 4.141-0.175 0.203-0.408 0.587-0.625 0.998-0.216 0.408-0.405 0.822-0.496 1.077-0.053 0.149-0.1 0.334-0.148 0.544-0.015 0.063-0.029 0.129-0.044 0.196-0.034 0.151-0.069 0.309-0.108 0.464-0.11 0.439-0.259 0.91-0.533 1.202-0.493 0.526-0.62 0.893-0.858 1.582-0.030 0.087-0.062 0.179-0.096 0.277-0.025 0.072-0.076 0.173-0.186 0.215-0.12 0.046-0.225-0.008-0.28-0.048-0.059-0.043-0.11-0.102-0.152-0.16-0.044-0.060-0.088-0.131-0.128-0.204-0.162-0.289-0.313-0.673-0.363-0.84-0.162-0.53-0.377-0.959-0.608-1.42-0.112-0.224-0.228-0.456-0.344-0.711-0.221-0.486-0.623-0.932-1.092-1.348-0.176-0.156-0.359-0.306-0.543-0.45 0.306 0.369 0.589 0.751 0.855 1.112 0.121 0.163 0.238 0.322 0.353 0.473 0.072 0.095 0.153 0.19 0.24 0.293l0.003 0.003c0.087 0.102 0.178 0.211 0.264 0.324 0.171 0.225 0.331 0.483 0.393 0.78 0.016 0.074 0.057 0.193 0.11 0.325 0.040 0.101 0.083 0.2 0.118 0.282 0.010 0.023 0.019 0.044 0.027 0.064 0.018 0.042 0.035 0.083 0.044 0.109 0.002 0.006 0.006 0.019 0.009 0.034 0.001 0.006 0.005 0.026 0.003 0.051-0.001 0.012-0.004 0.040-0.020 0.072-0.018 0.036-0.057 0.082-0.122 0.099-0.058 0.015-0.105 0-0.126-0.009-0.022-0.009-0.038-0.021-0.045-0.027-0.015-0.012-0.026-0.024-0.029-0.028-0.009-0.011-0.016-0.021-0.021-0.028-0.032-0.047-0.106-0.178-0.24-0.42-0.341-0.615-0.764-1.174-1.195-1.744l-0.036-0.048c-0.441-0.583-0.888-1.179-1.239-1.842 0 0.001 0.001 0.001 0 0s-0.003-0.005-0.007-0.012c-0.006-0.009-0.014-0.022-0.025-0.037-0.018-0.026-0.040-0.058-0.065-0.094l-0.013-0.018c-0.003-0.005-0.007-0.009-0.010-0.014-0.527-0.548-1.117-1.007-1.818-1.26-0.1-0.036-0.151-0.145-0.114-0.243s0.147-0.148 0.246-0.112c0.544 0.197 1.021 0.503 1.447 0.866 0.083-0.060 0.172-0.034 0.192-0.028 0.058 0.018 0.116 0.060 0.164 0.096 0.108 0.083 0.222 0.169 0.339 0.258 0.359 0.27 0.754 0.568 1.118 0.89 0.484 0.429 0.933 0.917 1.186 1.475 0.103 0.228 0.213 0.447 0.322 0.665 0.238 0.477 0.475 0.951 0.647 1.511 0.044 0.144 0.185 0.503 0.332 0.766 0.030 0.054 0.060 0.103 0.088 0.143 0.019-0.055 0.038-0.109 0.056-0.161 0.238-0.692 0.389-1.13 0.939-1.717 0.199-0.212 0.331-0.59 0.442-1.036 0.037-0.15 0.071-0.3 0.104-0.449 0.015-0.068 0.030-0.137 0.046-0.204 0.048-0.21 0.099-0.415 0.16-0.586 0.099-0.279 0.298-0.711 0.518-1.126 0.218-0.413 0.468-0.829 0.672-1.067 1.066-1.241 1.967-2.676 2.791-4.085 0.119-0.204 0.26-0.507 0.425-0.863l0.002-0.004c0.163-0.351 0.347-0.747 0.549-1.126s0.427-0.752 0.673-1.050c0.243-0.295 0.524-0.539 0.846-0.632 0.102-0.029 0.208 0.028 0.238 0.129zM15.175 23.392c-0-0 0-0.001 0.002-0.002-0.001 0.002-0.001 0.003-0.002 0.002z"></path>
<path d="M18.459 14.615c0.094-0.048 0.21-0.013 0.259 0.080 0.137 0.258 0.128 0.582 0.061 0.902-0.069 0.325-0.206 0.678-0.367 1.019-0.324 0.682-0.76 1.342-1.003 1.673-0.266 0.363-0.814 0.937-1.17 1.27-0.173 0.162-0.262 0.411-0.345 0.725-0.012 0.047-0.025 0.095-0.037 0.145-0.066 0.261-0.14 0.553-0.28 0.789-0.11 0.185-0.219 0.354-0.328 0.484-0.102 0.122-0.231 0.244-0.386 0.278-0.086 0.019-0.175 0.011-0.258-0.030-0.079-0.039-0.142-0.102-0.193-0.173-0.1-0.14-0.181-0.352-0.252-0.632-0.044-0.172-0.153-0.353-0.295-0.546-0.064-0.087-0.131-0.172-0.2-0.258-0.007-0.009-0.014-0.017-0.021-0.026-0.074-0.094-0.149-0.189-0.215-0.283-0.090-0.129-0.206-0.218-0.352-0.332l-0.010-0.008c-0.147-0.114-0.317-0.249-0.46-0.457-0.267-0.391-0.429-0.801-0.576-1.211-0.027-0.076-0.054-0.153-0.081-0.229-0.118-0.338-0.236-0.675-0.405-1.023-0.046-0.094-0.005-0.207 0.091-0.252s0.21-0.005 0.256 0.089c0.179 0.37 0.305 0.731 0.424 1.069 0.026 0.075 0.052 0.148 0.078 0.22 0.145 0.405 0.294 0.776 0.532 1.125 0.105 0.155 0.233 0.258 0.379 0.371 0.008 0.006 0.015 0.012 0.023 0.018 0.136 0.105 0.293 0.227 0.417 0.403 0.059 0.083 0.127 0.171 0.202 0.265 0.007 0.009 0.014 0.018 0.021 0.026 0.068 0.085 0.139 0.176 0.207 0.268 0.148 0.201 0.295 0.431 0.357 0.677 0.068 0.268 0.135 0.424 0.193 0.506 0.028 0.039 0.046 0.050 0.051 0.053 0.001 0-0.002 0 0.001-0 0.022-0.005 0.081-0.037 0.175-0.15 0.088-0.106 0.185-0.253 0.292-0.433 0.109-0.184 0.168-0.413 0.235-0.675 0.014-0.053 0.028-0.108 0.043-0.164 0.082-0.31 0.192-0.659 0.452-0.903 0.349-0.327 0.878-0.882 1.123-1.217 0.234-0.319 0.656-0.958 0.966-1.612 0.155-0.327 0.279-0.651 0.339-0.936 0.061-0.291 0.049-0.508-0.025-0.649-0.049-0.093-0.013-0.207 0.081-0.255z"></path>
<path d="M17.564 17.876c0.101 0.031 0.157 0.137 0.126 0.237-0.121 0.381-0.374 0.643-0.624 0.866-0.063 0.056-0.125 0.109-0.185 0.161-0.188 0.161-0.358 0.308-0.496 0.491-0.063 0.084-0.172 0.242-0.307 0.437-0.019 0.027-0.038 0.054-0.057 0.082-0.159 0.23-0.346 0.498-0.523 0.741-0.176 0.241-0.35 0.467-0.484 0.608-0.034 0.036-0.068 0.069-0.1 0.097-0.030 0.026-0.069 0.055-0.112 0.074-0.036 0.016-0.135 0.051-0.231-0.015-0.088-0.060-0.099-0.155-0.101-0.192-0.103-1.85-0.971-3.613-2.65-4.55-0.092-0.051-0.125-0.167-0.072-0.258s0.169-0.123 0.262-0.071c1.722 0.961 2.636 2.712 2.82 4.549 0.102-0.121 0.226-0.283 0.358-0.464 0.175-0.239 0.358-0.503 0.518-0.733 0.019-0.028 0.039-0.056 0.057-0.083 0.133-0.193 0.247-0.357 0.315-0.448 0.165-0.22 0.379-0.404 0.573-0.57 0.055-0.047 0.108-0.093 0.159-0.138 0.237-0.212 0.426-0.418 0.515-0.699 0.032-0.1 0.139-0.155 0.241-0.124z"></path>
</symbol>
<symbol id="icon-menu-close" viewBox="0 0 32 32">
<path   d="M4.21 4.212c0.28-0.283 0.733-0.283 1.012 0l22.272 22.55c0.28 0.283 0.28 0.742 0 1.025s-0.733 0.283-1.012 0l-22.272-22.55c-0.28-0.283-0.28-0.742 0-1.025z"></path>
<path   d="M4.506 27.788c-0.28-0.283-0.28-0.742 0-1.025l22.272-22.55c0.28-0.283 0.733-0.283 1.012 0s0.28 0.742 0 1.025l-22.272 22.55c-0.28 0.283-0.733 0.283-1.012 0z"></path>
</symbol>
<symbol id="icon-pen-button" viewBox="0 0 32 32">
<path d="M1.741 20.327c0.080-0.027 0.166 0.017 0.193 0.096 0.088 0.263 0.22 0.526 0.367 0.795 0.043 0.078 0.087 0.158 0.131 0.238 0.106 0.19 0.214 0.383 0.307 0.574 0.037 0.076 0.006 0.167-0.070 0.204s-0.167 0.006-0.204-0.070c-0.090-0.183-0.191-0.365-0.295-0.552-0.045-0.082-0.091-0.164-0.137-0.248-0.148-0.272-0.292-0.555-0.388-0.845-0.027-0.080 0.017-0.166 0.096-0.193z"></path>
<path d="M15.769 0.305c1.262 0 2.427 0.138 3.677 0.285 0.084 0.010 0.167 0.020 0.252 0.030 0.020 0.002 0.041 0.005 0.061 0.007 0.959 0.113 1.887 0.222 2.536 0.812 0.278 0.252 0.651 0.403 1.009 0.529 0.075 0.026 0.149 0.052 0.221 0.077 0.287 0.098 0.557 0.191 0.785 0.318 0.175 0.097 0.326 0.197 0.478 0.3 0.012 0.008 0.024 0.016 0.036 0.025 0.14 0.095 0.285 0.192 0.449 0.288 0.21 0.122 0.368 0.333 0.542 0.574 0.006 0.008 0.012 0.017 0.018 0.025 0.16 0.221 0.341 0.471 0.588 0.612 0.029 0.017 0.089 0.066 0.171 0.149 0.078 0.079 0.167 0.177 0.253 0.28s0.169 0.208 0.234 0.301c0.068 0.096 0.11 0.167 0.124 0.205 0.104 0.27 0.328 0.562 0.565 0.819 0.24 0.261 0.506 0.501 0.708 0.67 0.226 0.188 0.401 0.561 0.545 0.995 0.070 0.213 0.131 0.432 0.185 0.639 0.012 0.046 0.024 0.092 0.036 0.137 0.041 0.154 0.079 0.3 0.115 0.423 0.067 0.224 0.201 0.378 0.313 0.503l0.017 0.018c0.11 0.122 0.187 0.207 0.223 0.314 0.027 0.081 0.032 0.166 0.039 0.279 0.007 0.106 0.015 0.235 0.061 0.366 0.062 0.175 0.164 0.306 0.253 0.419l0.012 0.015c0.087 0.11 0.159 0.201 0.209 0.316 0.048 0.112 0.058 0.228 0.072 0.369 0.002 0.020 0.003 0.040 0.006 0.061 0.016 0.16 0.041 0.349 0.166 0.521 0.279 0.384 0.37 0.963 0.383 1.595 0.006 0.312-0.006 0.629-0.020 0.931-0.002 0.046-0.005 0.092-0.007 0.138-0.012 0.25-0.024 0.488-0.024 0.696 0 0.539 0.041 1.079 0.082 1.609l0 0.005c0.041 0.531 0.080 1.052 0.080 1.564 0 0.991-0.537 2.032-1.037 2.933-0.025 0.046-0.075 0.109-0.145 0.185-0.068 0.075-0.148 0.155-0.228 0.234l-0.017 0.017c-0.073 0.072-0.145 0.144-0.202 0.206-0.031 0.034-0.060 0.067-0.083 0.099-0.021 0.028-0.048 0.068-0.061 0.113-0.112 0.392-0.319 0.81-0.59 1.114-0.414 0.463-0.981 1.25-1.236 1.828-0.085 0.194-0.243 0.373-0.424 0.58-0.010 0.011-0.019 0.022-0.029 0.033-0.185 0.212-0.391 0.452-0.498 0.74-0.035 0.094-0.108 0.179-0.201 0.29-0.010 0.012-0.021 0.025-0.032 0.038-0.097 0.115-0.22 0.266-0.245 0.456-0.038 0.282-0.073 0.476-0.145 0.649-0.071 0.169-0.18 0.328-0.38 0.528-0.078 0.078-0.149 0.152-0.217 0.223-0.348 0.36-0.607 0.629-1.106 0.768-0.655 0.182-1.316 0.326-1.983 0.469-0.042 0.009-0.085 0.018-0.127 0.027-0.624 0.134-1.253 0.268-1.88 0.433-0.312 0.082-0.649 0.102-1 0.101-0.172-0.001-0.344-0.007-0.518-0.012l-0.011-0c-0.176-0.006-0.354-0.012-0.528-0.012h-5.617c-0.162 0-0.356 0.017-0.553 0.034l-0.013 0.001c-0.196 0.017-0.4 0.035-0.597 0.041-0.202 0.006-0.391-0.002-0.552-0.034s-0.284-0.086-0.366-0.163c-0.217-0.206-0.472-0.37-0.711-0.526-0.055-0.035-0.108-0.070-0.161-0.105-0.29-0.192-0.548-0.386-0.733-0.655-0.561-0.815-1.078-1.084-1.775-1.445-0.151-0.078-0.31-0.161-0.481-0.255-0.498-0.274-1.016-0.619-1.277-1.079-0.227-0.401-0.588-0.71-0.93-0.999l-0.027-0.023c-0.34-0.287-0.661-0.559-0.881-0.9-0.080-0.124-0.169-0.226-0.254-0.316-0.030-0.032-0.058-0.061-0.085-0.089-0.053-0.055-0.101-0.105-0.148-0.159-0.13-0.152-0.22-0.311-0.22-0.573 0-0.288-0.133-0.536-0.267-0.753-0.029-0.046-0.057-0.091-0.085-0.136-0.109-0.173-0.21-0.331-0.27-0.507-0.048-0.137-0.077-0.284-0.109-0.442-0.011-0.054-0.022-0.109-0.034-0.166-0.019-0.090-0.041-0.182-0.070-0.273 0.033-0.053 0.031-0.123-0.009-0.175-0.086-0.11-0.165-0.22-0.238-0.331-0.128-0.249-0.167-0.494-0.186-0.758-0.005-0.070-0.009-0.142-0.012-0.216-0.013-0.256-0.027-0.539-0.105-0.835-0.116-0.44-0.098-0.892-0.047-1.364 0.013-0.125 0.029-0.252 0.045-0.38 0.044-0.349 0.089-0.709 0.089-1.062 0-0.592-0.121-1.156-0.24-1.702l-0.006-0.028c-0.118-0.541-0.232-1.066-0.242-1.613-0.023-1.311 0.251-2.551 0.643-3.827 0.076-0.247 0.178-0.464 0.296-0.667 0.020-0.031 0.039-0.064 0.058-0.097 0.074-0.121 0.154-0.237 0.235-0.353 0.045-0.064 0.092-0.129 0.139-0.194 0.197-0.272 0.401-0.555 0.563-0.879 0.035-0.070 0.011-0.153-0.052-0.195 0.022-0.053 0.042-0.106 0.060-0.159 0.124-0.372 0.398-0.819 0.743-1.209 0.346-0.391 0.747-0.707 1.114-0.836 0.505-0.178 0.927-0.573 1.324-0.944 0.017-0.016 0.033-0.031 0.050-0.047 0.423-0.395 0.824-0.757 1.302-0.904 0.189-0.058 0.342-0.12 0.486-0.179l0.018-0.007c0.149-0.061 0.289-0.117 0.46-0.165 0.157-0.045 0.414-0.126 0.666-0.216 0.248-0.089 0.505-0.191 0.653-0.278 0.384-0.228 0.833-0.322 1.316-0.392 0.1-0.015 0.202-0.028 0.304-0.042 0.385-0.052 0.784-0.105 1.155-0.219 1.127-0.347 1.924-0.463 3.107-0.463zM1.328 19.523c-0.307-0.862-0.362-1.789-0.362-2.863 0-0.551-0.124-1.059-0.244-1.551l-0.004-0.018c-0.122-0.502-0.239-0.989-0.239-1.52 0-0.23-0.034-0.497-0.071-0.77-0.003-0.024-0.007-0.049-0.010-0.073-0.034-0.253-0.069-0.512-0.085-0.764-0.035-0.564 0.031-1.032 0.347-1.303 0.191-0.164 0.332-0.381 0.446-0.616-0.186 0.828-0.298 1.665-0.282 2.535 0.010 0.578 0.13 1.128 0.246 1.661l0.009 0.040c0.12 0.55 0.233 1.083 0.233 1.637 0 0.333-0.041 0.664-0.084 1.007-0.017 0.132-0.033 0.267-0.048 0.403-0.052 0.481-0.075 0.979 0.056 1.474 0.066 0.251 0.080 0.481 0.093 0.72zM1.807 7.926c-0.044 0.070-0.088 0.131-0.131 0.18-0.277 0.31-0.436 0.75-0.583 1.154-0.012 0.032-0.023 0.064-0.035 0.095-0.163 0.448-0.322 0.839-0.597 1.075-0.437 0.374-0.488 0.984-0.453 1.553 0.016 0.264 0.053 0.534 0.087 0.785 0.003 0.025 0.007 0.050 0.010 0.074 0.037 0.276 0.068 0.523 0.068 0.729 0 0.573 0.127 1.094 0.248 1.592l0.001 0.003c0.122 0.502 0.239 0.98 0.239 1.494 0 1.512 0.105 2.802 0.909 4.029 0.027 0.051 0.057 0.103 0.091 0.155 0.094 0.144 0.146 0.325 0.191 0.534 0.010 0.047 0.020 0.096 0.030 0.146 0.033 0.163 0.068 0.338 0.123 0.497 0.074 0.213 0.198 0.409 0.31 0.584 0.026 0.041 0.051 0.080 0.074 0.118 0.132 0.214 0.222 0.398 0.222 0.594 0 0.354 0.131 0.58 0.294 0.771 0.053 0.061 0.112 0.123 0.169 0.181 0.026 0.026 0.050 0.052 0.074 0.077 0.080 0.084 0.154 0.171 0.219 0.272 0.245 0.381 0.597 0.678 0.927 0.956 0.014 0.011 0.027 0.023 0.041 0.034 0.349 0.295 0.665 0.57 0.861 0.917 0.307 0.542 0.896 0.921 1.396 1.196 0.181 0.1 0.347 0.186 0.501 0.266 0.687 0.357 1.135 0.59 1.65 1.339 0.22 0.321 0.521 0.541 0.816 0.736 0.058 0.039 0.116 0.076 0.173 0.113 0.238 0.154 0.463 0.3 0.658 0.485 0.139 0.132 0.324 0.203 0.517 0.241s0.408 0.045 0.619 0.039c0.206-0.006 0.417-0.024 0.611-0.041l0.016-0.002c0.201-0.018 0.38-0.033 0.527-0.033h5.617c0.168 0 0.34 0.006 0.518 0.012l0.012 0.001c0.172 0.006 0.349 0.012 0.526 0.012 0.36 0.001 0.729-0.019 1.078-0.111 0.62-0.163 1.242-0.297 1.867-0.43 0.042-0.009 0.084-0.018 0.126-0.027 0.666-0.143 1.336-0.289 2.001-0.473 0.586-0.163 0.906-0.497 1.256-0.861 0.066-0.068 0.132-0.138 0.202-0.207 0.219-0.219 0.356-0.41 0.446-0.626 0.089-0.213 0.128-0.442 0.166-0.726 0.012-0.089 0.073-0.177 0.176-0.3 0.010-0.012 0.021-0.025 0.032-0.038 0.088-0.103 0.198-0.231 0.253-0.379 0.086-0.228 0.253-0.43 0.442-0.646 0.013-0.015 0.026-0.029 0.039-0.044 0.172-0.195 0.359-0.408 0.464-0.648 0.237-0.539 0.782-1.298 1.184-1.748 0.307-0.344 0.532-0.804 0.654-1.228 0.001-0.002 0.005-0.009 0.014-0.020 0.014-0.019 0.035-0.044 0.063-0.074 0.052-0.057 0.12-0.124 0.194-0.198l0.015-0.015c0.079-0.078 0.164-0.163 0.238-0.245 0.072-0.079 0.143-0.164 0.186-0.243 0.495-0.891 1.076-1.999 1.076-3.081 0-0.525-0.041-1.055-0.081-1.582l-0.001-0.011c-0.041-0.532-0.081-1.060-0.081-1.586 0-0.2 0.011-0.429 0.023-0.679 0.002-0.046 0.005-0.093 0.007-0.14 0.014-0.303 0.027-0.629 0.021-0.952-0.013-0.639-0.103-1.302-0.441-1.768-0.073-0.1-0.094-0.215-0.109-0.371-0.002-0.018-0.003-0.037-0.005-0.056-0.012-0.137-0.027-0.305-0.095-0.465-0.066-0.154-0.162-0.275-0.244-0.378-0.006-0.007-0.012-0.014-0.017-0.022-0.089-0.112-0.161-0.209-0.205-0.332-0.030-0.084-0.037-0.173-0.044-0.282l-0.001-0.015c-0.006-0.1-0.014-0.221-0.053-0.341-0.057-0.171-0.176-0.302-0.275-0.411-0.009-0.010-0.018-0.020-0.026-0.029-0.11-0.122-0.202-0.233-0.248-0.386-0.035-0.117-0.071-0.255-0.112-0.409-0.012-0.046-0.024-0.093-0.037-0.142-0.055-0.208-0.117-0.435-0.191-0.656-0.144-0.434-0.34-0.884-0.639-1.133-0.195-0.163-0.45-0.393-0.678-0.642-0.231-0.252-0.423-0.508-0.505-0.723-0.029-0.076-0.091-0.174-0.16-0.271-0.071-0.101-0.159-0.213-0.249-0.321s-0.185-0.213-0.271-0.299c-0.082-0.082-0.167-0.159-0.236-0.198-0.187-0.107-0.334-0.307-0.51-0.551l-0.001-0.001c-0.167-0.23-0.361-0.497-0.635-0.657-0.155-0.090-0.292-0.183-0.433-0.278-0.012-0.008-0.023-0.016-0.035-0.024-0.153-0.103-0.313-0.21-0.501-0.314-0.255-0.141-0.557-0.245-0.847-0.344-0.070-0.024-0.139-0.047-0.206-0.071-0.358-0.127-0.678-0.261-0.905-0.467-0.724-0.658-1.74-0.777-2.665-0.885-0.034-0.004-0.068-0.008-0.102-0.012-0.085-0.010-0.171-0.020-0.255-0.030-1.246-0.147-2.428-0.287-3.709-0.287-1.213 0-2.040 0.12-3.197 0.476-0.344 0.106-0.711 0.155-1.092 0.207-0.106 0.014-0.214 0.029-0.322 0.045-0.488 0.071-0.988 0.171-1.427 0.432-0.119 0.071-0.35 0.164-0.6 0.253-0.246 0.088-0.497 0.167-0.647 0.21-0.188 0.054-0.342 0.115-0.491 0.176l-0.015 0.006c-0.145 0.059-0.287 0.117-0.463 0.171-0.556 0.171-1.006 0.585-1.421 0.972-0.010 0.009-0.019 0.018-0.028 0.027-0.415 0.388-0.795 0.743-1.239 0.9-0.436 0.154-0.878 0.512-1.241 0.922-0.364 0.411-0.663 0.893-0.804 1.314-0.1 0.3-0.287 0.598-0.468 0.887-0.014 0.022-0.027 0.043-0.040 0.064-0.071 0.114-0.146 0.262-0.221 0.41-0.025 0.049-0.050 0.099-0.075 0.147-0.039 0.075-0.077 0.147-0.115 0.213-0.019 0.031-0.038 0.063-0.057 0.096z"></path>
<path d="M17.182 0.708c-2.182-0.468-4.525-0.271-6.745-0.070-0.425 0.039-0.826 0.215-1.248 0.4-0.017 0.007-0.034 0.015-0.051 0.022-0.43 0.188-0.887 0.383-1.371 0.383-0.168 0-0.296 0.027-0.429 0.061-0.023 0.006-0.047 0.012-0.072 0.019-0.112 0.030-0.237 0.063-0.384 0.082-0.018 0.002-0.036 0.010-0.062 0.036-0.029 0.029-0.057 0.070-0.096 0.129-0.003 0.005-0.007 0.010-0.010 0.016-0.069 0.105-0.172 0.261-0.353 0.334-0.058 0.023-0.117 0.077-0.176 0.17s-0.109 0.212-0.154 0.347c-0.044 0.129-0.080 0.266-0.116 0.398l-0.004 0.016c-0.036 0.134-0.073 0.267-0.113 0.373-0.388 1.008-0.942 1.824-1.612 2.676-0.052 0.066-0.148 0.078-0.214 0.026s-0.078-0.148-0.026-0.214c0.662-0.842 1.195-1.631 1.567-2.598 0.034-0.088 0.066-0.205 0.103-0.343 0.002-0.006 0.003-0.012 0.005-0.019 0.035-0.13 0.074-0.275 0.121-0.413 0.049-0.144 0.108-0.29 0.186-0.413s0.18-0.234 0.321-0.29c0.087-0.035 0.142-0.113 0.223-0.235l0.001-0.001c0.036-0.054 0.080-0.121 0.135-0.176 0.058-0.058 0.136-0.109 0.239-0.122 0.124-0.016 0.226-0.042 0.337-0.072 0.026-0.007 0.053-0.014 0.081-0.021 0.143-0.037 0.3-0.071 0.505-0.071 0.411 0 0.81-0.165 1.248-0.357 0.022-0.009 0.043-0.019 0.065-0.028 0.409-0.18 0.852-0.374 1.328-0.418 2.214-0.201 4.603-0.404 6.837 0.075 0.375 0.080 0.73 0.132 1.085 0.185 0.218 0.032 0.436 0.064 0.657 0.102 0.572 0.099 1.144 0.238 1.726 0.53 0.35 0.175 0.649 0.41 0.93 0.634 0.012 0.009 0.023 0.018 0.034 0.027 0.272 0.217 0.526 0.419 0.808 0.569 0.493 0.261 1.001 0.366 1.521 0.474 0.152 0.031 0.304 0.063 0.457 0.099 0.67 0.156 1.329 0.389 1.863 1.057 0.477 0.596 0.962 1.375 1.329 2.197 0.366 0.821 0.619 1.697 0.619 2.485 0 1.901 0.18 3.643 0.566 5.496 0.149 0.717 0.144 1.477 0.139 2.217-0 0.070-0.001 0.141-0.001 0.21-0.004 0.814 0.010 1.596 0.229 2.309 0.117 0.381 0.125 0.809 0.122 1.218-0 0.052-0.001 0.104-0.001 0.156-0.004 0.36-0.007 0.702 0.047 1.011 0.147 0.843 0.090 1.782-0.303 2.569-0.448 0.896-1.216 1.589-2.044 2.183-0.415 0.298-0.849 0.574-1.269 0.839-0.026 0.017-0.052 0.033-0.078 0.049-0.394 0.249-0.773 0.488-1.118 0.732-0.097 0.069-0.131 0.131-0.173 0.208-0.012 0.021-0.024 0.044-0.038 0.068-0.034 0.057-0.081 0.122-0.166 0.168-0.081 0.044-0.179 0.062-0.299 0.062-0.48 0-0.792 0.143-1.226 0.387-0.642 0.361-1.281 0.62-1.94 0.887-0.264 0.107-0.53 0.215-0.802 0.331-0.233 0.1-0.466 0.144-0.679 0.185-0.021 0.004-0.042 0.008-0.062 0.012-0.235 0.045-0.448 0.093-0.655 0.204-0.561 0.302-1.196 0.547-1.797 0.734-1 0.311-2.145 0.505-3.188 0.181-0.356-0.11-0.726-0.187-1.106-0.266-0.123-0.026-0.248-0.052-0.373-0.079-0.505-0.11-1.017-0.242-1.488-0.477-0.318-0.159-0.6-0.374-0.869-0.58l-0.002-0.002c-0.274-0.209-0.535-0.408-0.828-0.557-0.166-0.084-0.335-0.169-0.505-0.254-1.133-0.568-2.323-1.164-3.315-1.967-1.208-0.978-1.845-2.385-2.306-3.865-0.192-0.615-0.355-1.248-0.515-1.87-0.033-0.127-0.065-0.253-0.098-0.378-0.193-0.745-0.391-1.468-0.641-2.134-0.219-0.585-0.262-1.277-0.252-1.956 0.004-0.325 0.021-0.652 0.037-0.966l0.002-0.046c0.017-0.329 0.032-0.643 0.032-0.933 0-1.943 0.471-3.967 0.972-5.802 0.095-0.347 0.155-0.664 0.215-0.976 0.035-0.183 0.070-0.365 0.111-0.551 0.11-0.494 0.26-0.984 0.575-1.509 0.132-0.22 0.267-0.416 0.4-0.61 0.088-0.128 0.175-0.255 0.262-0.388 0.125-0.193 0.276-0.306 0.407-0.404 0.132-0.099 0.242-0.182 0.335-0.32 0.047-0.070 0.141-0.089 0.211-0.042s0.089 0.141 0.042 0.211c-0.122 0.183-0.268 0.292-0.395 0.387-0.003 0.003-0.007 0.005-0.010 0.008-0.131 0.098-0.241 0.183-0.334 0.326-0.098 0.151-0.188 0.282-0.277 0.41-0.127 0.185-0.25 0.362-0.38 0.579-0.292 0.486-0.433 0.942-0.539 1.418-0.037 0.168-0.071 0.343-0.106 0.523-0.062 0.322-0.127 0.663-0.224 1.018-0.499 1.831-0.961 3.822-0.961 5.722 0 0.298-0.016 0.62-0.032 0.948l-0.002 0.044c-0.016 0.315-0.032 0.637-0.037 0.956-0.009 0.671 0.034 1.315 0.233 1.845 0.256 0.682 0.457 1.419 0.65 2.164 0.033 0.127 0.066 0.254 0.098 0.381 0.16 0.622 0.321 1.246 0.51 1.853 0.456 1.463 1.070 2.799 2.207 3.719 0.964 0.781 2.121 1.361 3.257 1.93 0.17 0.085 0.34 0.171 0.509 0.256 0.319 0.162 0.599 0.376 0.866 0.58l0.008 0.006c0.273 0.209 0.533 0.406 0.822 0.551 0.435 0.218 0.916 0.343 1.416 0.452 0.118 0.026 0.239 0.051 0.359 0.076 0.384 0.080 0.774 0.161 1.145 0.276 0.954 0.296 2.026 0.125 3.007-0.181 0.589-0.183 1.205-0.421 1.743-0.711 0.252-0.136 0.506-0.19 0.742-0.235 0.020-0.004 0.040-0.008 0.059-0.011 0.218-0.041 0.419-0.080 0.62-0.166 0.284-0.122 0.558-0.233 0.825-0.341 0.651-0.264 1.264-0.511 1.888-0.862 0.447-0.252 0.816-0.426 1.375-0.426 0.092 0 0.134-0.014 0.153-0.025 0.016-0.009 0.029-0.021 0.049-0.056 0.007-0.012 0.014-0.026 0.023-0.042 0.043-0.082 0.113-0.214 0.274-0.328 0.352-0.248 0.737-0.492 1.129-0.739 0.027-0.017 0.053-0.034 0.080-0.051 0.421-0.266 0.847-0.537 1.254-0.829 0.815-0.585 1.534-1.242 1.949-2.072 0.356-0.713 0.414-1.582 0.275-2.38-0.059-0.339-0.055-0.712-0.051-1.069 0.001-0.051 0.001-0.102 0.001-0.153 0.003-0.411-0.007-0.795-0.108-1.126-0.235-0.763-0.247-1.59-0.243-2.4 0-0.069 0.001-0.138 0.001-0.206 0.005-0.746 0.010-1.475-0.133-2.158-0.39-1.873-0.572-3.636-0.572-5.558 0-0.729-0.236-1.561-0.593-2.361-0.356-0.799-0.828-1.555-1.289-2.131-0.47-0.588-1.048-0.8-1.694-0.95-0.138-0.032-0.281-0.062-0.426-0.092-0.526-0.108-1.091-0.225-1.626-0.508-0.308-0.163-0.583-0.382-0.848-0.594-0.014-0.011-0.028-0.022-0.042-0.033-0.283-0.225-0.559-0.441-0.877-0.6-0.545-0.272-1.083-0.405-1.642-0.502-0.205-0.035-0.416-0.067-0.632-0.098-0.364-0.054-0.741-0.109-1.122-0.191z"></path>
<path d="M12.294 0.938c0.314 0.009 0.63 0.017 0.946 0.017h4.407c0.509 0 1.123 0.015 1.722 0.083 0.601 0.069 1.175 0.191 1.608 0.398 1.167 0.56 2.093 1.335 2.977 2.172 0.256 0.242 0.509 0.49 0.763 0.74 0.622 0.61 1.253 1.23 1.956 1.792 1.441 1.153 2.598 3.126 2.598 4.965v3.82c0 0.643 0.033 1.314 0.066 1.987 0.024 0.49 0.048 0.982 0.060 1.464 0.028 1.158-0.016 2.295-0.293 3.356-0.033 0.125-0.067 0.251-0.101 0.377-0.183 0.676-0.369 1.365-0.383 2.097-0.001 0.051-0.002 0.099-0.002 0.144-0.003 0.219-0.005 0.364-0.042 0.498-0.040 0.146-0.127 0.284-0.353 0.472-0.919 0.766-1.696 1.539-2.523 2.395-0.834 0.863-1.68 1.644-2.63 2.388-1.329 1.040-2.41 1.064-4.048 1.099-0.091 0.002-0.183 0.004-0.278 0.006-0.898 0.021-1.788 0.090-2.673 0.159-0.090 0.007-0.179 0.014-0.269 0.021-0.976 0.076-1.949 0.145-2.934 0.145-0.453 0-0.844 0.046-1.284 0.129-0.197 0.037-0.446-0.014-0.73-0.098-0.069-0.020-0.14-0.043-0.213-0.066-0.208-0.066-0.425-0.134-0.615-0.162-0.525-0.078-1.1-0.275-1.681-0.503-0.224-0.088-0.451-0.181-0.675-0.273-0.349-0.144-0.693-0.285-1.011-0.399-0.187-0.067-0.332-0.181-0.481-0.32-0.037-0.035-0.076-0.073-0.116-0.112-0.113-0.11-0.236-0.23-0.376-0.333-0.145-0.106-0.303-0.154-0.431-0.193-0.024-0.007-0.048-0.015-0.070-0.022-0.142-0.046-0.255-0.097-0.353-0.225-0.124-0.162-0.25-0.312-0.372-0.457l-0.018-0.022c-0.128-0.152-0.25-0.299-0.363-0.45-0.226-0.301-0.414-0.619-0.53-1.025-0.132-0.462-0.406-0.844-0.66-1.198-0.016-0.023-0.032-0.045-0.048-0.067-0.273-0.381-0.511-0.734-0.589-1.159-0.072-0.396-0.182-0.775-0.289-1.143-0.032-0.111-0.064-0.222-0.095-0.331-0.133-0.477-0.243-0.949-0.255-1.464-0.008-0.362-0.045-0.713-0.081-1.056-0.002-0.022-0.005-0.044-0.007-0.067-0.039-0.367-0.074-0.726-0.074-1.095 0-0.668-0.049-1.352-0.099-2.034-0.025-0.344-0.050-0.687-0.068-1.027-0.055-1.022-0.054-2.032 0.163-3.011 0.1-0.449 0.191-0.89 0.28-1.326 0.222-1.082 0.438-2.132 0.773-3.204 0.149-0.478 0.378-0.939 0.628-1.396 0.060-0.11 0.122-0.22 0.184-0.331-0.017 0.063-0.032 0.117-0.046 0.162-0.026 0.080 0.018 0.166 0.098 0.192s0.166-0.018 0.192-0.098c0.030-0.091 0.061-0.215 0.096-0.35 0.007-0.029 0.015-0.058 0.022-0.087 0.044-0.171 0.094-0.359 0.155-0.538s0.13-0.347 0.21-0.477c0.081-0.133 0.163-0.211 0.242-0.242 0.325-0.13 0.575-0.287 0.811-0.458 0.096-0.070 0.191-0.142 0.287-0.215 0.020-0.016 0.041-0.031 0.061-0.047 0.117-0.089 0.238-0.18 0.37-0.272 0.555-0.384 0.937-0.872 1.301-1.336l0.006-0.007c0.369-0.471 0.72-0.917 1.221-1.257 0.112-0.076 0.228-0.159 0.348-0.246 0.199-0.143 0.409-0.294 0.633-0.435 0.356-0.223 0.708-0.393 1.025-0.423 0.639-0.061 1.291-0.043 1.948-0.025zM3.719 5.853c-0.048 0.007-0.092 0.036-0.116 0.083-0.143 0.286-0.304 0.57-0.469 0.862-0.089 0.158-0.18 0.318-0.27 0.482-0.253 0.462-0.494 0.944-0.652 1.451-0.34 1.088-0.561 2.161-0.784 3.248-0.089 0.433-0.178 0.867-0.276 1.306-0.227 1.020-0.226 2.063-0.17 3.093 0.019 0.352 0.044 0.701 0.069 1.048 0.049 0.675 0.097 1.339 0.097 1.997 0 0.387 0.037 0.761 0.076 1.127 0.002 0.021 0.004 0.043 0.007 0.064 0.036 0.346 0.072 0.685 0.080 1.034 0.012 0.553 0.131 1.055 0.266 1.539 0.032 0.116 0.066 0.23 0.099 0.344 0.106 0.365 0.21 0.723 0.279 1.103 0.091 0.501 0.371 0.906 0.641 1.282 0.014 0.019 0.027 0.038 0.040 0.056 0.261 0.364 0.506 0.705 0.623 1.115 0.129 0.453 0.34 0.804 0.579 1.124 0.119 0.159 0.246 0.311 0.374 0.463l0.017 0.020c0.122 0.146 0.245 0.292 0.365 0.448 0.154 0.2 0.337 0.276 0.501 0.329 0.031 0.010 0.060 0.019 0.088 0.028 0.126 0.039 0.228 0.070 0.327 0.143 0.121 0.089 0.222 0.187 0.329 0.292 0.043 0.042 0.088 0.085 0.135 0.13 0.159 0.149 0.34 0.296 0.586 0.384 0.314 0.113 0.644 0.249 0.986 0.39 0.225 0.093 0.456 0.188 0.691 0.28 0.585 0.23 1.186 0.437 1.747 0.521 0.164 0.024 0.345 0.082 0.545 0.144 0.077 0.024 0.157 0.050 0.24 0.074 0.281 0.083 0.595 0.158 0.873 0.105 0.425-0.080 0.797-0.124 1.227-0.124 0.998 0 1.981-0.070 2.957-0.146 0.089-0.007 0.179-0.014 0.268-0.021 0.887-0.069 1.768-0.138 2.658-0.159 0.099-0.002 0.196-0.004 0.292-0.006 1.63-0.035 2.804-0.060 4.214-1.164 0.963-0.754 1.82-1.545 2.662-2.416 0.824-0.854 1.592-1.618 2.498-2.373 0.255-0.213 0.389-0.4 0.451-0.625 0.049-0.175 0.051-0.369 0.053-0.587 0-0.042 0.001-0.086 0.002-0.13 0.013-0.69 0.188-1.338 0.37-2.014 0.035-0.128 0.070-0.257 0.104-0.388 0.288-1.102 0.33-2.273 0.302-3.44-0.012-0.502-0.037-0.998-0.061-1.488-0.033-0.662-0.065-1.314-0.065-1.956v-3.82c0-1.952-1.217-4.007-2.712-5.203-0.69-0.552-1.304-1.155-1.921-1.76-0.257-0.253-0.515-0.506-0.779-0.756-0.892-0.845-1.845-1.645-3.055-2.226-0.478-0.23-1.092-0.356-1.705-0.426-0.616-0.070-1.243-0.085-1.757-0.085h-4.407c-0.298 0-0.604-0.008-0.914-0.017-0.667-0.018-1.351-0.036-2.009 0.026-0.391 0.037-0.794 0.24-1.158 0.468-0.229 0.144-0.458 0.308-0.664 0.456-0.118 0.085-0.228 0.164-0.326 0.23-0.544 0.369-0.921 0.85-1.284 1.314l-0.006 0.007c-0.369 0.471-0.726 0.925-1.24 1.281-0.139 0.096-0.264 0.19-0.382 0.28-0.021 0.016-0.042 0.032-0.062 0.048-0.095 0.073-0.186 0.143-0.279 0.21-0.223 0.162-0.452 0.304-0.746 0.422-0.167 0.067-0.293 0.21-0.388 0.366-0.022 0.036-0.043 0.074-0.063 0.113z"></path>
<path d="M24.062 8.574c0.092 0.050 0.125 0.165 0.075 0.257-0.248 0.453-0.599 0.834-0.943 1.195-0.035 0.037-0.070 0.073-0.105 0.109-0.313 0.326-0.613 0.639-0.852 0.995-0.846 1.255-2.155 2.707-3.363 3.63-0.204 0.155-0.396 0.398-0.596 0.672-0.037 0.051-0.074 0.102-0.112 0.155-0.16 0.222-0.326 0.452-0.497 0.634-0.844 0.9-1.533 1.973-2.089 3.084-0.063 0.126-0.125 0.227-0.188 0.305-0.062 0.076-0.136 0.142-0.228 0.173-0.102 0.035-0.2 0.017-0.282-0.031-0.073-0.043-0.129-0.109-0.172-0.171-0.085-0.124-0.159-0.296-0.227-0.459-0.010-0.023-0.019-0.046-0.029-0.069-0.061-0.147-0.12-0.29-0.186-0.416-0.055-0.105-0.18-0.261-0.339-0.436 0.001 0.005 0.003 0.010 0.004 0.015 0.004 0.016 0.011 0.050 0.001 0.091-0.011 0.049-0.042 0.093-0.088 0.121-0.040 0.024-0.078 0.027-0.097 0.027-0.020 0-0.037-0.003-0.046-0.005-0.029-0.007-0.052-0.019-0.058-0.023l-0.001-0c-0.019-0.011-0.042-0.025-0.063-0.040-0.045-0.030-0.108-0.076-0.181-0.13-0.148-0.109-0.346-0.261-0.546-0.415-0.398-0.307-0.814-0.636-0.859-0.674s-0.176-0.139-0.359-0.28c-0.022-0.017-0.044-0.034-0.068-0.052-0.214-0.164-0.478-0.367-0.729-0.568-0.124-0.099-0.246-0.198-0.358-0.292-0.041 0.018-0.085 0.037-0.131 0.057-0.36 0.154-0.697 0.424-0.89 0.58-0.018 0.015-0.035 0.028-0.051 0.040-0.022 0.017-0.043 0.034-0.061 0.047l-0 0c-0.013 0.009-0.041 0.030-0.071 0.043-0.009 0.004-0.027 0.010-0.049 0.014-0.020 0.003-0.068 0.007-0.12-0.021-0.062-0.033-0.090-0.090-0.098-0.135-0.007-0.038-0.001-0.068 0.002-0.081 0.006-0.027 0.018-0.049 0.022-0.058 0.006-0.012 0.013-0.024 0.020-0.034 0.044-0.070 0.156-0.217 0.34-0.461 0.015-0.020 0.030-0.040 0.046-0.061 0.048-0.064 0.096-0.123 0.144-0.178-0.010-0.003-0.022-0.007-0.035-0.013-0.021-0.010-0.056-0.030-0.083-0.071-0.071-0.108-0.008-0.207 0.010-0.231 0.022-0.029 0.048-0.048 0.061-0.057 0.030-0.021 0.069-0.041 0.105-0.058 0.077-0.037 0.185-0.081 0.307-0.13 0.017-0.007 0.035-0.014 0.052-0.021 0.017-0.013 0.034-0.022 0.051-0.029 0.123-0.049 0.238-0.092 0.345-0.126 0.133-0.052 0.269-0.106 0.4-0.161 0.142-0.059 0.274-0.117 0.382-0.17 0.112-0.055 0.188-0.1 0.227-0.132 0.050-0.040 0.124-0.079 0.214-0.070s0.151 0.063 0.186 0.105c0.064 0.078 0.103 0.192 0.129 0.279 0.014 0.045 0.027 0.092 0.040 0.138l0.003 0.010c0.014 0.050 0.027 0.097 0.041 0.142 0.030 0.095 0.056 0.155 0.078 0.185 0.076 0.103 0.155 0.206 0.234 0.309 0.252 0.328 0.51 0.665 0.713 1.053 0.038 0.072 0.080 0.143 0.126 0.215 0.070 0.079 0.143 0.157 0.222 0.233 0.020 0.019 0.041 0.040 0.064 0.062 0.15 0.145 0.367 0.353 0.572 0.566 0.23 0.239 0.468 0.507 0.571 0.704 0.074 0.142 0.141 0.303 0.201 0.448 0.009 0.023 0.019 0.045 0.028 0.066 0.071 0.17 0.131 0.305 0.19 0.39 0.015 0.022 0.028 0.037 0.037 0.046 0.010-0.008 0.023-0.021 0.041-0.043 0.039-0.048 0.087-0.122 0.143-0.235 0.568-1.134 1.277-2.24 2.152-3.173 0.153-0.163 0.3-0.367 0.459-0.587 0.039-0.055 0.079-0.11 0.121-0.166 0.199-0.272 0.42-0.557 0.672-0.749 1.171-0.894 2.453-2.315 3.279-3.541 0.259-0.384 0.582-0.721 0.892-1.044 0.035-0.037 0.071-0.074 0.105-0.11 0.345-0.362 0.663-0.711 0.885-1.116 0.050-0.092 0.165-0.125 0.257-0.075zM11.639 15.174c-0.008-0.027-0.015-0.053-0.022-0.078l-0.003-0.009c-0.013-0.047-0.025-0.090-0.037-0.13-0-0.001-0.001-0.003-0.001-0.004-0.031 0.021-0.079 0.052-0.137 0.089 0.067 0.038 0.134 0.082 0.201 0.133zM10.862 15.801c0.068 0.056 0.14 0.114 0.213 0.172 0.247 0.198 0.509 0.399 0.723 0.563 0.025 0.019 0.049 0.038 0.073 0.056 0.177 0.135 0.317 0.243 0.371 0.289l0 0 0.001 0 0.008 0.006 0.019 0.015c0.015 0.012 0.036 0.029 0.061 0.049 0.050 0.040 0.117 0.093 0.196 0.155 0.157 0.124 0.36 0.282 0.559 0.436 0.052 0.040 0.104 0.080 0.155 0.119-0.012-0.018-0.025-0.037-0.038-0.056-0.037-0.054-0.076-0.11-0.116-0.166-0.072-0.102-0.146-0.207-0.215-0.314-0.154-0.176-0.288-0.354-0.419-0.527l-0.005-0.007c-0.199-0.264-0.39-0.517-0.633-0.755-0.348-0.341-0.545-0.493-0.745-0.542-0.013-0.003-0.026-0.006-0.039-0.008-0.018 0.010-0.035 0.021-0.053 0.031 0.018 0.002 0.044 0.006 0.070 0.019 0.025 0.012 0.063 0.036 0.088 0.082 0.027 0.050 0.028 0.1 0.019 0.138-0.013 0.058-0.050 0.094-0.059 0.103l-0.001 0c-0.015 0.015-0.030 0.026-0.043 0.035-0.038 0.026-0.1 0.061-0.189 0.106z"></path>
<path d="M23.334 9.276c0.029 0.1-0.028 0.205-0.129 0.235-0.207 0.060-0.424 0.234-0.646 0.507-0.219 0.269-0.427 0.615-0.621 0.986s-0.372 0.758-0.533 1.112l-0.003 0.007c-0.158 0.346-0.304 0.665-0.432 0.887-0.814 1.413-1.716 2.871-2.789 4.139-0.172 0.203-0.402 0.587-0.616 0.997-0.213 0.407-0.399 0.822-0.489 1.076-0.052 0.149-0.098 0.334-0.145 0.543-0.014 0.063-0.029 0.129-0.044 0.196-0.033 0.151-0.068 0.309-0.106 0.463-0.108 0.438-0.255 0.909-0.525 1.201-0.486 0.525-0.611 0.892-0.845 1.581-0.029 0.087-0.061 0.179-0.095 0.276-0.025 0.072-0.075 0.172-0.184 0.215-0.118 0.046-0.221-0.008-0.276-0.048-0.058-0.043-0.108-0.102-0.15-0.16-0.044-0.060-0.086-0.13-0.127-0.203-0.159-0.289-0.308-0.673-0.358-0.839-0.16-0.53-0.371-0.958-0.599-1.419-0.11-0.224-0.225-0.455-0.339-0.71-0.217-0.485-0.613-0.932-1.076-1.347-0.174-0.156-0.354-0.306-0.535-0.45 0.301 0.368 0.58 0.751 0.842 1.111 0.119 0.163 0.235 0.322 0.348 0.473 0.071 0.095 0.151 0.19 0.236 0.293l0.003 0.003c0.085 0.102 0.176 0.211 0.26 0.324 0.168 0.225 0.326 0.482 0.387 0.78 0.015 0.074 0.057 0.193 0.108 0.324 0.040 0.101 0.081 0.2 0.116 0.282 0.010 0.023 0.019 0.044 0.027 0.064 0.017 0.041 0.034 0.083 0.043 0.109 0.002 0.006 0.006 0.019 0.009 0.034 0.001 0.006 0.005 0.026 0.003 0.051-0.001 0.012-0.004 0.040-0.019 0.072-0.018 0.036-0.056 0.082-0.121 0.099-0.057 0.015-0.103 0-0.124-0.009-0.022-0.009-0.037-0.021-0.045-0.027-0.015-0.012-0.025-0.024-0.029-0.028-0.009-0.011-0.016-0.021-0.020-0.028-0.031-0.047-0.104-0.178-0.236-0.419-0.336-0.615-0.753-1.173-1.177-1.743l-0.035-0.048c-0.434-0.583-0.875-1.178-1.221-1.841 0 0.001 0.001 0.001 0 0s-0.003-0.005-0.007-0.012c-0.006-0.009-0.014-0.022-0.024-0.037-0.018-0.026-0.040-0.058-0.065-0.094l-0.013-0.018c-0.003-0.005-0.007-0.009-0.010-0.014-0.519-0.548-1.101-1.007-1.791-1.26-0.098-0.036-0.148-0.145-0.112-0.243s0.145-0.148 0.243-0.112c0.536 0.197 1.005 0.502 1.425 0.865 0.082-0.060 0.17-0.034 0.189-0.028 0.057 0.018 0.114 0.059 0.161 0.096 0.106 0.083 0.218 0.169 0.334 0.257 0.353 0.27 0.743 0.568 1.101 0.89 0.477 0.428 0.919 0.917 1.168 1.474 0.102 0.228 0.21 0.446 0.317 0.664 0.235 0.477 0.468 0.951 0.637 1.51 0.043 0.143 0.182 0.503 0.327 0.766 0.030 0.054 0.059 0.103 0.086 0.142 0.019-0.055 0.037-0.109 0.055-0.161 0.234-0.691 0.383-1.13 0.925-1.716 0.196-0.212 0.326-0.59 0.436-1.035 0.037-0.15 0.070-0.3 0.103-0.448 0.015-0.068 0.030-0.136 0.045-0.204 0.047-0.21 0.097-0.414 0.158-0.586 0.098-0.278 0.294-0.71 0.51-1.125 0.215-0.413 0.461-0.829 0.662-1.067 1.050-1.24 1.938-2.674 2.75-4.083 0.118-0.204 0.256-0.506 0.419-0.862l0.002-0.004c0.16-0.351 0.341-0.746 0.54-1.126s0.421-0.751 0.663-1.049c0.239-0.295 0.516-0.539 0.833-0.631 0.1-0.029 0.205 0.028 0.234 0.129zM14.951 23.379c-0-0 0-0.001 0.001-0.003-0.001 0.002-0.001 0.003-0.001 0.003z"></path>
<path d="M18.186 14.607c0.093-0.048 0.207-0.013 0.255 0.080 0.135 0.258 0.126 0.582 0.060 0.901-0.068 0.325-0.203 0.678-0.362 1.018-0.319 0.681-0.749 1.341-0.988 1.672-0.262 0.362-0.802 0.936-1.153 1.269-0.17 0.162-0.258 0.411-0.34 0.724-0.012 0.047-0.024 0.095-0.037 0.145-0.065 0.261-0.138 0.553-0.276 0.788-0.108 0.185-0.216 0.354-0.323 0.483-0.101 0.122-0.228 0.243-0.381 0.278-0.085 0.019-0.172 0.011-0.254-0.030-0.078-0.039-0.14-0.102-0.191-0.173-0.099-0.14-0.178-0.352-0.248-0.631-0.043-0.172-0.15-0.353-0.291-0.546-0.063-0.087-0.129-0.172-0.197-0.258-0.007-0.009-0.014-0.017-0.020-0.026-0.073-0.094-0.147-0.189-0.212-0.282-0.089-0.129-0.203-0.218-0.347-0.332l-0.010-0.008c-0.145-0.114-0.313-0.248-0.453-0.457-0.263-0.391-0.423-0.8-0.567-1.21-0.027-0.076-0.053-0.153-0.080-0.229-0.116-0.337-0.233-0.674-0.399-1.023-0.045-0.094-0.005-0.207 0.089-0.252s0.207-0.005 0.252 0.089c0.176 0.369 0.301 0.73 0.418 1.069 0.026 0.075 0.051 0.148 0.076 0.22 0.142 0.404 0.289 0.775 0.524 1.125 0.104 0.154 0.229 0.258 0.373 0.371 0.008 0.006 0.015 0.012 0.023 0.018 0.134 0.105 0.289 0.227 0.411 0.403 0.058 0.083 0.125 0.171 0.199 0.265 0.007 0.009 0.014 0.018 0.021 0.026 0.067 0.085 0.137 0.176 0.204 0.268 0.146 0.201 0.29 0.431 0.352 0.677 0.067 0.268 0.133 0.424 0.19 0.505 0.028 0.039 0.046 0.050 0.050 0.053 0.001 0-0.002 0 0.001-0 0.022-0.005 0.079-0.037 0.173-0.15 0.087-0.105 0.183-0.253 0.288-0.433 0.108-0.184 0.165-0.413 0.231-0.674 0.013-0.053 0.027-0.108 0.042-0.164 0.081-0.309 0.189-0.659 0.446-0.903 0.344-0.327 0.865-0.882 1.107-1.216 0.23-0.319 0.646-0.957 0.952-1.611 0.153-0.327 0.275-0.651 0.334-0.935 0.060-0.29 0.049-0.508-0.025-0.649-0.048-0.093-0.013-0.207 0.080-0.255z"></path>
<path d="M17.304 17.866c0.1 0.031 0.155 0.137 0.124 0.237-0.119 0.38-0.369 0.643-0.615 0.866-0.062 0.056-0.123 0.109-0.182 0.161-0.185 0.161-0.353 0.307-0.488 0.49-0.062 0.084-0.17 0.242-0.302 0.436-0.018 0.027-0.037 0.054-0.056 0.082-0.157 0.23-0.34 0.498-0.516 0.741-0.174 0.241-0.345 0.466-0.477 0.608-0.033 0.036-0.067 0.069-0.099 0.097-0.030 0.026-0.068 0.055-0.111 0.074-0.035 0.016-0.133 0.051-0.228-0.015-0.087-0.060-0.097-0.155-0.099-0.192-0.101-1.849-0.957-3.611-2.611-4.547-0.091-0.051-0.123-0.167-0.071-0.258s0.167-0.123 0.258-0.071c1.696 0.96 2.597 2.711 2.778 4.546 0.101-0.121 0.222-0.283 0.352-0.463 0.172-0.239 0.353-0.503 0.51-0.733 0.019-0.028 0.038-0.056 0.057-0.083 0.131-0.193 0.243-0.357 0.31-0.447 0.162-0.22 0.374-0.403 0.565-0.569 0.054-0.047 0.107-0.093 0.156-0.137 0.234-0.212 0.42-0.418 0.508-0.699 0.031-0.1 0.137-0.155 0.237-0.124z"></path>
</symbol>
</defs>
</svg>
